<?xml version="1.0" encoding="UTF-8"?>
<svg width="1001px" height="1173px" viewBox="0 0 1001 1173" version="1.1" xmlns="http://www.w3.org/2000/svg" xmlns:xlink="http://www.w3.org/1999/xlink">
    <!-- Generator: Sketch 50.2 (55047) - http://www.bohemiancoding.com/sketch -->
    <title>Page 1</title>
    <desc>Created with Sketch.</desc>
    <defs></defs>
    <g id="Designs" stroke="none" stroke-width="1" fill="none" fill-rule="evenodd" opacity="0.05">
        <g id="HOME" transform="translate(-439.000000, -1338.000000)" fill="#66992C">
            <g id="Page-1" transform="translate(439.000000, 1338.000000)">
                <path d="M988.755983,430.338897 C975.631009,427.357615 963.177361,424.530413 951.621209,422.989606 C967.44944,401.819635 1002.31894,367.796466 1067.80021,356.953484 L1034.98777,402.349959 C1034.54979,402.951949 1034.54261,403.768935 1034.96623,404.381674 C1035.38985,404.99083 1036.15093,405.270326 1036.87251,405.076829 L1080.80312,393.29503 C1105.17192,386.755559 1134.45899,390.048586 1162.89165,393.248448 C1171.41068,394.208765 1179.52763,395.122499 1187.50457,395.774654 C1117.16605,459.452983 1046.07005,443.339009 988.755983,430.338897 M1273.72517,349.156284 C1273.33027,348.514878 1272.5656,348.192384 1271.83684,348.378714 L1225.89225,359.164363 C1211.04408,362.632971 1189.43957,360.203512 1166.51035,357.623556 L1165.46567,357.508891 C1149.66616,355.728005 1131.89934,353.728539 1114.39817,353.728539 L1114.36227,353.728539 L1138.88903,319.787786 C1139.28393,319.246712 1139.33419,318.530057 1139.02186,317.938817 C1138.71671,317.36191 1138.11719,317 1137.46381,317 L1137.42432,317 L1104.93498,317.723821 C947.528629,321.231844 905.242231,430.586143 903.41852,435.531059 L898.119707,448.971912 C897.925848,449.469987 897.968928,450.028978 898.238176,450.494803 C898.503835,450.957045 898.970533,451.27954 899.50544,451.351205 L901.149652,451.602034 C903.43288,451.935279 957.32928,459.929559 980.822123,465.254301 C1005.85507,470.933787 1037.00534,478 1070.30601,478 C1138.04539,478 1194.84608,448.506087 1243.94627,387.84129 L1273.6067,351.195166 C1274.08416,350.611093 1274.13083,349.790523 1273.72517,349.156284" id="Fill-1"></path>
                <path d="M945.921246,327.786254 C946.182384,327.928751 946.468563,328 946.754742,328 C947.184011,328 947.609702,327.843253 947.942385,327.544008 C948.224987,327.280387 976.646139,301.659313 1018.75738,288.820276 C1019.21527,288.681341 1019.59445,288.364283 1019.80909,287.943915 C1020.02372,287.519985 1020.05949,287.031931 1019.90567,286.583063 C1019.51218,285.432395 1009.90372,258.347157 983.10663,248.115827 C982.45915,247.866456 981.70793,248.026766 981.217849,248.52907 C980.935247,248.82119 952.836046,278.090204 945.023359,325.969409 C944.901733,326.703272 945.263034,327.433572 945.921246,327.786254" id="Fill-3"></path>
                <path d="M1243.45612,549.18325 L1208.28602,566.76105 C1207.69125,567.058251 1207.31146,567.666975 1207.31146,568.33299 L1207.31146,1114.64486 C1105.29095,1151.90592 1017.39796,1127.63574 929.494214,1106.26237 C860.895329,1089.58333 796.094355,1073.83528 728.394786,1081.36556 L712.755272,1083.10937 C711.866704,1083.21321 711.193112,1083.96517 711.193112,1084.86035 L711.193112,1109.59603 L569.806888,1109.59603 L569.806888,1084.86035 C569.806888,1083.96517 569.133296,1083.21321 568.244728,1083.10937 L552.605214,1081.36556 C484.909228,1073.83528 420.104671,1089.58333 351.509369,1106.26237 C263.602043,1127.63574 175.709048,1151.90592 73.692122,1114.64486 L73.692122,568.33299 C73.692122,567.666975 73.3123308,567.058251 72.7175635,566.76105 L37.5438843,549.18325 C37.002861,548.911115 36.3507667,548.946922 35.834824,549.258445 C35.3152983,549.580711 35,550.150047 35,550.75519 L35,1140.99186 C35,1141.73307 35.4657816,1142.39909 36.17162,1142.64616 L47.8699048,1146.79622 C89.3531337,1161.52376 131.359471,1173 176.289484,1173 C240.692752,1173 301.663568,1158.17578 360.62794,1143.83496 C419.896861,1129.42611 475.819321,1115.81575 531.118349,1118.44401 L531.118349,1146.5026 C531.118349,1147.47656 531.903012,1148.26432 532.873988,1148.26432 L748.126012,1148.26432 C749.096988,1148.26432 749.885234,1147.47656 749.885234,1146.5026 L749.885234,1118.44401 C805.180679,1115.81575 861.106722,1129.42611 920.375643,1143.83496 C979.340015,1158.17578 1040.30725,1173 1104.71052,1173 C1149.64411,1173 1191.65045,1161.52376 1233.13368,1146.79622 L1244.83196,1142.64616 C1245.53422,1142.39909 1246,1141.73307 1246,1140.99186 L1246,550.75519 C1246,550.150047 1245.68828,549.580711 1245.16876,549.258445 C1244.65282,548.946922 1244.00072,548.911115 1243.45612,549.18325" id="Fill-5"></path>
                <path d="M559,494.063523 C559,493.145381 558.290746,492.381458 557.377313,492.309728 L541.594627,491.068802 C469.150448,485.384211 393.210149,503.470893 326.207164,519.434372 C254.787463,536.437933 187.343881,552.509006 149.334328,532.528656 L123.575522,518.9753 C123.031045,518.691968 122.37194,518.706314 121.848955,519.025511 C121.322388,519.341123 121,519.914962 121,520.531838 L121,1063.45867 C121,1064.11141 121.365373,1064.71394 121.94209,1065.0152 C121.94209,1065.0152 158.282388,1075 182.604776,1075 C233.373731,1075 284.361194,1059.39517 335.162388,1047.29076 C400.496119,1031.72897 474.566567,1014.09777 541.881194,1020.13384 L557.083582,1021.50388 C557.563582,1021.54333 558.065075,1021.38552 558.426866,1021.05198 C558.792239,1020.71844 559,1020.2486 559,1019.75367 L559,984.405198 C559,983.494229 558.305075,982.733893 557.398806,982.647817 L545.348657,981.564696 C471.801194,974.940444 394.496119,993.346324 326.207164,1009.61107 C326.085373,1009.64335 325.963582,1009.67562 325.845373,1009.70073 C260.500896,1025.28404 198.835224,1044.23507 159.682985,1031.3739 L159.682985,577.029855 C207.213731,587.599249 266.576119,573.450536 335.158806,557.110476 L335.688955,556.984949 C393.804776,543.141087 459.607761,527.410731 520.764776,528.805877 L520.832836,586.907056 C518.50806,586.864018 516.186866,586.842499 513.851343,586.842499 C449.871642,586.842499 384.391045,602.443742 326.321791,616.276843 C294.373134,623.890967 264.19403,631.081885 236.898507,635.192005 L225.844179,636.856138 C224.980896,636.985251 224.346866,637.727655 224.346866,638.595587 L224.346866,674.202285 C224.346866,674.711566 224.568955,675.202916 224.955821,675.53646 C225.342687,675.870004 225.865672,676.013463 226.367164,675.938147 L242.647761,673.488573 C271.555224,669.134571 302.511642,661.760742 335.284179,653.956534 C399.482388,638.65297 472.248955,621.333798 538.68597,626.519866 L557.105075,627.965223 C557.599403,628.026193 558.079403,627.839695 558.437612,627.502565 C558.792239,627.169021 559,626.702777 559,626.211428 L559,494.063523 Z" id="Fill-7"></path>
                <path d="M560,689.065378 C560,688.14856 559.293597,687.385738 558.375632,687.317693 L542.698504,686.082137 C470.204337,680.355604 394.160226,698.462766 327.091379,714.403228 C295.109608,722.006374 264.899223,729.186923 237.575409,733.294699 L226.498865,734.952851 C225.634687,735.081779 225,735.823112 225,736.689792 L225,772.245152 C225,772.7537 225.22232,773.244341 225.609586,773.577404 C225.928723,773.853166 226.34109,774 226.757043,774 C226.846688,774 226.932747,773.996419 227.022393,773.982093 L243.327036,771.532469 C272.278804,767.181164 303.260137,759.821548 336.113258,752.014267 C400.395937,736.736349 473.295299,719.438566 539.657743,724.635064 L558.095939,726.139219 C558.580022,726.182195 559.071277,726.010291 559.433443,725.677228 C559.792023,725.347747 560,724.875012 560,724.384371 L560,689.065378 Z" id="Fill-9"></path>
                <path d="M560,785.060655 C560,784.143785 559.293597,783.380921 558.375632,783.312872 L542.698504,782.077248 C470.200751,776.368304 394.188913,794.451402 327.091379,810.399914 C295.109608,818.003482 264.899223,825.184431 237.575409,829.288854 L226.498865,830.95068 C225.634687,831.079614 225,831.820989 225,832.687717 L225,868.245055 C225,868.753631 225.22232,869.240718 225.609586,869.577381 C225.928723,869.853158 226.34109,870 226.757043,870 C226.846688,870 226.932747,869.992837 227.022393,869.982092 L243.327036,867.528751 C272.278804,863.180785 303.260137,855.820759 336.055885,848.02737 C400.345736,832.745021 473.20924,815.410461 539.668501,820.6359 L558.106696,822.021948 C558.587194,822.07209 559.074863,821.893014 559.437029,821.556351 C559.795609,821.226851 560,820.757672 560,820.270585 L560,785.060655 Z" id="Fill-11"></path>
                <path d="M542.698504,880.076055 C470.222266,874.370615 394.17457,892.453959 327.094965,908.399105 C295.109608,915.999195 264.899223,923.183823 237.575409,927.288302 L226.498865,928.95015 C225.634687,929.079086 225,929.820471 225,930.687211 L225,966.245031 C225,966.753614 225.22232,967.240707 225.609586,967.573793 C225.932309,967.853156 226.34109,968 226.760629,968 C226.846688,968 226.932747,967.992837 227.022393,967.978511 L243.330622,965.528717 C272.278804,961.184274 303.260137,953.820567 336.141944,946.005583 C400.417452,930.726608 473.280956,913.420465 539.657743,918.628067 L558.095939,920.146652 C558.583608,920.171723 559.071277,920.021298 559.433443,919.691793 C559.792023,919.358707 560,918.88594 560,918.395265 L560,883.059502 C560,882.14262 559.293597,881.379746 558.379217,881.311696 L542.698504,880.076055 Z" id="Fill-13"></path>
                <path d="M439.658828,438.433023 C439.988318,439.11392 440.718927,439.518874 441.471023,439.414948 L454.074017,437.780796 C487.137623,433.501897 522.410962,430.34827 558.912726,428.405922 C559.847475,428.355751 560.578083,427.588846 560.578083,426.653509 L560.578083,391.408141 C560.578083,390.924346 560.381105,390.462053 560.030127,390.128772 C559.679148,389.795491 559.188495,389.566136 558.726492,389.652144 C525.566187,391.375888 493.365701,394.074389 463.00248,397.675975 L396.2521,258.58668 L510.821509,311.098157 C511.419605,311.377683 512.110818,311.288091 512.630123,310.886721 L640.536715,211.536713 L768.446888,310.886721 C768.966193,311.288091 769.660987,311.374099 770.259083,311.098157 L884.821329,258.58668 L818.074531,397.675975 C761.115735,390.910011 701.392088,387.476858 640.536715,387.476858 L622.959139,387.476858 C621.988576,387.476858 621.200665,388.265265 621.200665,389.236439 L621.200665,1057.30011 C621.200665,1057.92367 621.526573,1058.49706 622.060204,1058.81242 C622.600997,1059.13136 623.259977,1059.14212 623.800771,1058.84825 L649.766016,1044.74294 C737.700455,996.98699 847.768028,1023.19435 944.878048,1046.31259 C995.673231,1058.40746 1046.64749,1074 1097.40686,1074 C1121.72465,1074 1158.05809,1064.02307 1158.05809,1064.02307 C1158.6347,1063.72204 1159,1063.11999 1159,1062.46776 L1159,519.968621 C1159,519.35223 1158.67767,518.778844 1158.15121,518.463481 C1157.62832,518.144535 1156.97292,518.1302 1156.42496,518.41331 L1130.67102,531.955988 C1092.67223,551.917015 1025.22705,535.865769 953.831581,518.872019 C886.830502,502.917532 810.87589,484.82718 738.484785,490.528794 L722.70866,491.768743 C721.795399,491.840417 721.086279,492.603738 721.086279,493.521157 L721.086279,625.564961 C721.086279,626.055924 721.294001,626.521801 721.648561,626.855082 C722.010284,627.191946 722.500938,627.378297 722.980847,627.317375 L741.392892,625.873157 C807.742154,620.669672 880.530796,637.99312 944.749117,653.284628 C977.504722,661.082688 1008.44097,668.454292 1037.37879,672.804864 L1054.57315,675.392271 C1055.08171,675.474696 1055.59386,675.324182 1055.98065,674.987317 C1056.36744,674.654036 1056.59307,674.163074 1056.59307,673.654193 L1056.59307,638.079128 C1056.59307,637.208296 1055.95558,636.466477 1055.09246,636.341049 L1043.12696,634.538464 C1015.84017,630.427998 985.6596,623.242745 953.709813,615.634619 C893.545652,601.310701 825.334056,585.073105 759.242656,586.291552 L759.310703,528.236142 C820.685381,526.931687 886.586966,542.6389 944.981909,556.54353 C1013.50509,572.859967 1072.83478,586.990367 1120.32432,576.418548 L1120.32432,1030.40827 C1081.0971,1043.28797 1019.26042,1024.24078 953.770697,1008.65183 C860.102415,986.350666 754.0317,961.103729 659.876346,997.528124 L659.876346,426.291558 C717.354447,427.004708 773.568309,430.864318 827.006576,437.780796 L839.605987,439.411364 C840.358084,439.518874 841.088692,439.110336 841.418182,438.429439 L963.906096,183.207823 C964.224842,182.541261 964.09233,181.742103 963.573025,181.215304 C963.05372,180.684921 962.251483,180.530823 961.588922,180.84977 L774.495895,266.592593 L659.876346,177.56713 L659.876346,103.198867 L722.576147,103.198867 C723.54671,103.198867 724.33104,102.41046 724.33104,101.439286 L724.33104,66.2584245 C724.33104,65.2872506 723.54671,64.4988438 722.576147,64.4988438 L659.876346,64.4988438 L659.876346,1.75599697 C659.876346,0.788406803 659.088435,0 658.117872,0 L622.959139,0 C621.988576,0 621.200665,0.788406803 621.200665,1.75599697 L621.200665,64.4988438 L558.504445,64.4988438 C557.533882,64.4988438 556.745971,65.2872506 556.745971,66.2584245 L556.745971,101.439286 C556.745971,102.41046 557.533882,103.198867 558.504445,103.198867 L621.200665,103.198867 L621.200665,177.56713 L506.584697,266.592593 L319.488089,180.84977 C318.818365,180.530823 318.023291,180.684921 317.503986,181.215304 C316.988263,181.742103 316.852169,182.541261 317.170915,183.207823 L439.658828,438.433023 Z" id="Fill-15"></path>
                <path d="M1055,736.74555 C1055,735.876506 1054.36347,735.136209 1053.50523,735.011038 L1041.53992,733.212153 C1014.2872,729.110122 984.159372,721.939615 952.264998,714.347103 C885.383006,698.436087 809.578886,680.397166 737.254216,686.065621 L721.61993,687.299449 C720.704473,687.367399 720,688.129154 720,689.04469 L720,724.267794 C720,724.757749 720.207408,725.22267 720.568585,725.555267 C720.922609,725.89144 721.412521,726.059527 721.895282,726.016611 L740.275939,724.564628 C806.596499,719.368246 879.235856,736.659718 943.324989,751.919845 C976.031117,759.701902 1006.92779,767.054801 1035.80044,771.396444 L1052.98313,773.978542 C1053.06896,773.992847 1053.15836,774 1053.24418,774 C1053.66257,774 1054.07024,773.849795 1054.3885,773.574419 C1054.77829,773.241822 1055,772.751867 1055,772.24403 L1055,736.74555 Z" id="Fill-17"></path>
                <path d="M1055,832.746492 C1055,831.87747 1054.36347,831.137192 1053.50523,831.012024 L1041.53992,829.209608 C1014.2872,825.111257 984.159372,817.940931 952.264998,810.348611 C885.368702,794.434421 809.550278,776.39238 737.254216,782.067845 L721.61993,783.301641 C720.704473,783.369589 720,784.131325 720,785.046838 L720,820.133155 C720,820.615945 720.203832,821.084431 720.561433,821.417019 C720.915457,821.749608 721.355305,821.928419 721.884554,821.885504 L740.275939,820.565878 C806.567891,815.391085 879.228704,832.671391 943.324989,847.920403 C976.031117,855.702263 1006.92779,863.054976 1035.80044,867.392934 L1052.98313,869.978543 C1053.06896,869.992848 1053.15836,870 1053.24418,870 C1053.66257,870 1054.07024,869.849799 1054.3885,869.57443 C1054.77829,869.241841 1055,868.751898 1055,868.244075 L1055,832.746492 Z" id="Fill-19"></path>
                <path d="M1041.53992,927.211951 C1014.2872,923.113476 984.162948,915.942934 952.264998,908.35396 C885.393734,892.43929 809.59319,874.38955 737.254216,880.068763 L721.61993,881.302597 C720.704473,881.374123 720,882.135882 720,883.047846 L720,918.321193 C720,918.807574 720.207408,919.27965 720.568585,919.608672 C720.929761,919.941271 721.412521,920.109359 721.902434,920.066443 L740.275939,918.564384 C806.596499,913.367976 879.235856,930.66311 943.324989,945.919736 C976.034693,953.705407 1006.92779,961.058343 1035.80401,965.400008 L1052.98313,967.982118 C1053.06896,967.992847 1053.15836,968 1053.24418,968 C1053.66257,968 1054.07024,967.85337 1054.3885,967.577993 C1054.77829,967.245394 1055,966.759013 1055,966.247598 L1055,930.748942 C1055,929.879893 1054.36347,929.139593 1053.50523,929.014421 L1041.53992,927.211951 Z" id="Fill-21"></path>
                <path d="M111.106431,393.250145 L110.908982,391.505052 L111.206951,393.235811 C139.54272,390.046628 168.837016,386.764278 193.198669,393.296728 L237.125753,405.078789 C237.84016,405.27229 238.608418,404.989205 239.032036,404.380036 C239.455655,403.770866 239.448475,402.953862 239.010496,402.351858 L206.198013,356.95079 C271.68297,367.794013 306.548926,401.821522 322.38077,422.991965 C310.835371,424.529223 298.378115,427.360071 285.210042,430.348587 C227.931796,443.338237 156.846458,459.456154 86.4970687,395.772824 C94.4883802,395.120654 102.594571,394.210483 111.106431,393.250145 M203.695792,478 C236.989333,478 268.139653,470.937213 293.183404,465.254017 C316.403441,459.990073 370.511729,451.945448 372.84881,451.597863 L374.496614,451.354195 C375.027933,451.278945 375.494631,450.956443 375.76029,450.497774 C376.029539,450.031939 376.076209,449.469352 375.87876,448.97485 L370.590708,435.551614 C368.874694,430.882506 326.767734,321.235522 169.066775,317.723837 L136.573801,317 L136.534311,317 C135.884523,317 135.277815,317.358335 134.976256,317.935255 C134.663927,318.526508 134.717777,319.246762 135.109086,319.787848 L159.639469,353.729357 L159.607159,353.729357 C142.109561,353.729357 124.331944,355.725284 108.53959,357.50621 L107.430284,357.631627 C84.5584755,360.204474 62.9503424,362.641153 48.1093352,359.161718 L2.16467856,348.379412 C1.43591115,348.189495 0.674833857,348.51558 0.2691653,349.153416 C-0.129323283,349.791253 -0.0826534492,350.611841 0.391224866,351.195927 L30.0516994,387.839283 C79.1555448,448.509014 135.952733,478 203.695792,478" id="Fill-23"></path>
                <path d="M256.240117,288.821943 C298.351431,301.661601 326.77621,327.283915 327.058812,327.543986 C327.391496,327.843245 327.817188,328 328.24288,328 C328.529059,328 328.818816,327.93231 329.076378,327.789806 C329.73459,327.437107 330.095892,326.706771 329.977843,325.972873 C322.165143,278.08779 294.062315,248.81736 293.779713,248.525226 C293.289631,248.02646 292.53841,247.869705 291.894506,248.111963 C265.097373,258.343788 255.488896,285.433898 255.095399,286.581059 C254.941577,287.029949 254.973773,287.521589 255.191984,287.94554 C255.406619,288.362366 255.785807,288.683001 256.240117,288.821943" id="Fill-25"></path>
            </g>
        </g>
    </g>
</svg>