<svg class="pc-logo-no-text" viewBox="0 0 94 86" xmlns="http://www.w3.org/2000/svg" xmlns:xlink="http://www.w3.org/1999/xlink"><defs><path id="a" d="M0 0h62.485v78.514H0z"/></defs><g fill="none" fill-rule="evenodd"><path d="M72.758 32.151c-.976-.241-1.904-.468-2.764-.594 1.178-1.708 3.775-4.456 8.65-5.332L76.2 29.89a.156.156 0 0 0 0 .164c.031.05.087.071.142.056l3.27-.951c1.816-.528 3.998-.263 6.116-.005a54.01 54.01 0 0 0 1.832.204c-5.237 5.143-10.533 3.843-14.802 2.792m21.222-6.554a.124.124 0 0 0-.141-.063l-3.42.87c-1.107.28-2.717.083-4.423-.125l-.078-.008c-1.176-.145-2.5-.305-3.803-.305h-.004l1.829-2.741a.162.162 0 0 0 .01-.15.135.135 0 0 0-.117-.075h-.004l-2.419.059c-11.721.283-14.87 9.111-15.006 9.51l-.396 1.086a.156.156 0 0 0 .01.122c.02.038.054.065.093.072l.124.019c.171.027 4.184.672 5.933 1.103C74.03 35.429 76.353 36 78.832 36c5.046 0 9.274-2.382 12.931-7.282l2.21-2.957a.156.156 0 0 0 .007-.164M71.075 23.982c.02.013.043.018.066.018a.139.139 0 0 0 .094-.038c.023-.025 2.298-2.267 5.666-3.39a.151.151 0 0 0 .083-.076.16.16 0 0 0 .008-.12c-.031-.1-.8-2.472-2.944-3.367a.138.138 0 0 0-.152.037c-.02.024-2.269 2.587-2.894 6.777-.01.064.02.127.073.159M92.809 41.014l-2.615 1.267a.128.128 0 0 0-.071.113v39.398c-7.581 2.687-14.113.936-20.646-.605-5.099-1.202-9.914-2.338-14.947-1.795l-1.16.126a.128.128 0 0 0-.118.126v1.783H42.744v-1.783a.126.126 0 0 0-.114-.126l-1.164-.126c-5.03-.543-9.846.593-14.945 1.795-6.533 1.541-13.064 3.292-20.646.605V42.394a.126.126 0 0 0-.073-.113l-2.614-1.267a.13.13 0 0 0-.126.005.121.121 0 0 0-.062.109v42.564c0 .054.033.101.087.12l.868.298C7.04 85.173 10.16 86 13.5 86c4.787 0 9.318-1.069 13.7-2.102 4.406-1.04 8.56-2.023 12.67-1.832v2.023c0 .07.058.128.131.128h15.998a.13.13 0 0 0 .13-.128v-2.023c4.108-.191 8.267.791 12.67 1.832C73.181 84.931 77.712 86 82.499 86c3.34 0 6.46-.827 9.544-1.89l.87-.298a.13.13 0 0 0 .087-.12V41.128a.127.127 0 0 0-.064-.109.134.134 0 0 0-.127-.005" fill="#FFF"/><path d="M41 37.299a.126.126 0 0 0-.118-.129l-1.153-.092c-5.293-.417-10.842.912-15.735 2.085-5.219 1.25-10.146 2.431-12.925.963l-1.88-.995a.126.126 0 0 0-.128.001.136.136 0 0 0-.061.111v39.909c0 .048.027.092.068.113 0 0 2.657.735 4.432.735 3.71 0 7.434-1.147 11.147-2.037 4.772-1.143 10.184-2.44 15.103-1.996l1.111.101a.14.14 0 0 0 .1-.034.129.129 0 0 0 .039-.094v-2.6a.127.127 0 0 0-.118-.128l-.878-.08c-5.376-.487-11.022.865-16.01 2.061l-.029.006c-4.773 1.147-9.28 2.538-12.14 1.595V43.397c3.475.776 7.811-.264 12.822-1.464l.038-.01c4.246-1.018 9.054-2.174 13.521-2.07l.006 4.27c-.17-.004-.34-.004-.51-.004-4.674 0-9.46 1.147-13.7 2.163-2.336.56-4.54 1.087-6.534 1.39l-.81.122a.128.128 0 0 0-.108.129v2.617c0 .038.017.072.044.097a.13.13 0 0 0 .104.029l1.19-.178c2.111-.322 4.375-.864 6.767-1.438 4.69-1.123 10.007-2.396 14.86-2.016l1.348.108c.034.004.07-.01.097-.035a.137.137 0 0 0 .04-.095v-9.713z" fill="#FFF"/><path d="M41 49.32c0-.071-.048-.13-.116-.137l-1.123-.098c-5.193-.45-10.642.974-15.445 2.227-2.293.6-4.456 1.164-6.415 1.487l-.795.131c-.061.01-.106.068-.106.135v2.796c0 .04.017.08.043.106.024.02.054.033.084.033h.013l1.173-.194c2.075-.342 4.294-.92 6.647-1.536 4.605-1.2 9.828-2.56 14.583-2.152l1.32.117a.119.119 0 0 0 .098-.035.153.153 0 0 0 .039-.102V49.32zM41 58.32c0-.072-.048-.131-.116-.137l-1.123-.099c-5.193-.448-10.64.974-15.445 2.228-2.293.6-4.456 1.164-6.415 1.487l-.795.13c-.061.011-.106.068-.106.138v2.794c0 .04.017.08.043.106.024.02.054.033.084.033.005 0 .013 0 .018-.002l1.168-.192c2.075-.342 4.294-.92 6.643-1.534 4.605-1.203 9.827-2.565 14.589-2.154l1.32.108a.117.117 0 0 0 .096-.037.144.144 0 0 0 .039-.1v-2.77zM39.761 64.085c-5.193-.45-10.64.974-15.445 2.228-2.293.597-4.456 1.162-6.415 1.485l-.795.131c-.061.01-.106.07-.106.137v2.797c0 .04.017.08.043.104a.122.122 0 0 0 .084.033h.013l1.173-.192c2.075-.344 4.294-.923 6.648-1.537 4.606-1.203 9.827-2.563 14.582-2.154l1.32.12c.034.003.072-.01.098-.036a.153.153 0 0 0 .039-.102v-2.78c0-.072-.048-.132-.116-.138l-1.123-.096z" fill="#FFF"/><g transform="translate(23)"><mask id="b" fill="#fff"><use xlink:href="#a"/></mask><path d="M9.103 32.051c.025.05.08.08.134.072l.936-.12a105.33 105.33 0 0 1 7.78-.684.13.13 0 0 0 .122-.13v-2.575a.128.128 0 0 0-.038-.094c-.027-.024-.062-.041-.099-.036-2.458.126-4.85.324-7.104.588L5.882 18.904l8.501 3.837a.129.129 0 0 0 .136-.013l9.492-7.263 9.491 7.263a.13.13 0 0 0 .134.013l8.502-3.837-4.953 10.168c-4.227-.494-8.66-.746-13.174-.746h-1.304a.13.13 0 0 0-.133.128v48.838c0 .046.025.088.065.11a.13.13 0 0 0 .13.004l1.926-1.03c6.526-3.493 14.691-1.576 21.9.114 3.768.884 7.553 2.024 11.318 2.024 1.806 0 4.5-.729 4.5-.729a.132.132 0 0 0 .072-.114V38.01a.126.126 0 0 0-.064-.108.127.127 0 0 0-.127-.004l-1.913.99c-2.82 1.458-7.823.284-13.123-.958-4.971-1.166-10.608-2.488-15.98-2.071l-1.17.09a.13.13 0 0 0-.122.128v9.653c0 .036.016.07.045.095a.123.123 0 0 0 .098.034l1.366-.106c4.923-.38 10.323.886 15.09 2.003 2.431.57 4.726 1.109 6.874 1.428l1.277.189a.119.119 0 0 0 .103-.03.124.124 0 0 0 .046-.098v-2.6a.131.131 0 0 0-.112-.128l-.888-.13c-2.026-.301-4.265-.827-6.634-1.382-4.466-1.048-9.528-2.235-14.432-2.146l.004-4.244c4.554-.095 9.447 1.052 13.78 2.07 5.084 1.193 9.488 2.226 13.012 1.453v33.188c-2.912.942-7.501-.45-12.36-1.59-6.952-1.63-14.822-3.478-21.81-.814V31.165c4.265.051 8.438.333 12.403.839l.934.12a.127.127 0 0 0 .134-.073l9.091-18.658a.13.13 0 0 0-.025-.146.13.13 0 0 0-.149-.025L33.95 19.488l-8.505-6.508V7.543h4.653c.072 0 .13-.057.13-.127V4.844a.13.13 0 0 0-.13-.13h-4.653V.129a.13.13 0 0 0-.131-.13h-2.607a.132.132 0 0 0-.133.13v4.587h-4.651a.13.13 0 0 0-.131.13v2.571c0 .07.057.127.13.127h4.652v5.437l-8.505 6.508L.186 13.222a.127.127 0 0 0-.147.025.127.127 0 0 0-.025.146l9.09 18.658z" fill="#FFF" mask="url(#b)"/></g><path d="M77 53.07c0-.07-.045-.127-.108-.137l-.858-.141c-1.95-.323-4.109-.886-6.393-1.485-4.793-1.251-10.223-2.669-15.404-2.223l-1.122.098c-.065.006-.115.065-.115.136v2.772c0 .036.013.073.04.1a.12.12 0 0 0 .096.036l1.317-.114c4.751-.408 9.954.952 14.546 2.15 2.344.613 4.556 1.19 6.626 1.532l1.232.204.01.002a.127.127 0 0 0 .09-.035.152.152 0 0 0 .043-.104V53.07zM77 62.07c0-.07-.045-.127-.108-.137l-.858-.141c-1.95-.323-4.109-.886-6.393-1.485-4.793-1.251-10.225-2.669-15.404-2.223l-1.122.098c-.065.006-.115.065-.115.136v2.76c0 .038.013.075.04.1.025.026.057.04.096.038l1.317-.104c4.75-.406 9.954.952 14.546 2.15 2.344.613 4.556 1.19 6.626 1.532l1.232.204.01.002a.127.127 0 0 0 .09-.035.152.152 0 0 0 .043-.104V62.07zM76.035 67.791c-1.952-.322-4.11-.886-6.396-1.483-4.79-1.252-10.221-2.671-15.402-2.224l-1.12.096a.135.135 0 0 0-.117.137v2.776a.14.14 0 0 0 .043.102c.024.024.06.039.093.035l1.317-.119c4.75-.408 9.955.952 14.546 2.153 2.344.613 4.556 1.189 6.624 1.532l1.232.202c.005.002.011.002.011.002a.132.132 0 0 0 .09-.033.147.147 0 0 0 .044-.106V68.07c0-.067-.047-.127-.108-.137l-.857-.14zM8.274 29.156l-.016-.14.024.14c2.11-.258 4.292-.523 6.105.005l3.27.951a.125.125 0 0 0 .142-.056.145.145 0 0 0-.002-.164l-2.442-3.667c4.877.874 7.472 3.625 8.65 5.333-.858.126-1.786.353-2.766.595-4.267 1.048-9.558 2.349-14.797-2.793.594-.052 1.2-.126 1.832-.204M15.169 36c2.479 0 4.799-.57 6.662-1.027 1.732-.427 5.76-1.076 5.934-1.104l.123-.02a.125.125 0 0 0 .093-.07.141.141 0 0 0 .01-.122l-.395-1.084c-.126-.378-3.263-9.233-15.005-9.514L10.172 23h-.003a.127.127 0 0 0-.117.076.152.152 0 0 0 .01.149l1.826 2.74h-.003c-1.303 0-2.625.162-3.803.304L8 26.28c-1.704.209-3.313.406-4.416.125l-3.422-.87c-.055-.015-.11.01-.142.063a.148.148 0 0 0 .01.164l2.209 2.958C5.894 33.62 10.124 36 15.169 36M19.1 20.571c3.368 1.125 5.643 3.366 5.666 3.388a.123.123 0 0 0 .16.02.158.158 0 0 0 .073-.158c-.626-4.19-2.874-6.75-2.897-6.776a.132.132 0 0 0-.152-.034c-2.142.894-2.911 3.264-2.942 3.365a.154.154 0 0 0 .008.118.138.138 0 0 0 .083.077" fill="#FFF"/></g></svg>