<?xml version="1.0" encoding="UTF-8"?>
<svg width="364px" height="74px" viewBox="0 0 364 74" version="1.1" xmlns="http://www.w3.org/2000/svg" xmlns:xlink="http://www.w3.org/1999/xlink">
    <!-- Generator: Sketch 50.2 (55047) - http://www.bohemiancoding.com/sketch -->
    <title>Group</title>
    <desc>Created with Sketch.</desc>
    <defs>
        <polygon id="path-1" points="0.850182577 0.782510638 53.0071485 0.782510638 53.0071485 67.7914 0.850182577 67.7914"></polygon>
        <polygon id="path-3" points="0 0.110055319 23.2354061 0.110055319 23.2354061 10.1551617 0 10.1551617"></polygon>
    </defs>
    <g id="Symbols" stroke="none" stroke-width="1" fill="none" fill-rule="evenodd">
        <g id="-Secondary-Nav-Copy" transform="translate(-25.000000, -72.000000)">
            <g id="Group" transform="translate(25.000000, 72.000000)">
                <path d="M60.2878765,27.5405957 C59.475516,27.3548085 58.7053357,27.1784681 57.9913958,27.0808511 C58.9709151,25.7614468 61.1252327,23.6374894 65.1729752,22.9604681 L63.1436362,25.7945106 C63.1186404,25.8322979 63.1170782,25.8826809 63.1436362,25.9204681 C63.1701941,25.9598298 63.217061,25.9755745 63.2608035,25.9645532 L65.9759623,25.2292766 C67.4803915,24.8199149 69.2925804,25.0261702 71.0485289,25.2261277 C71.575001,25.2859574 72.0764774,25.3426383 72.5685804,25.3835745 C68.2224516,29.3575319 63.8294559,28.3514468 60.2878765,27.5405957 M77.8973529,22.4755319 C77.8739194,22.4345957 77.8270525,22.4157021 77.7801855,22.4267234 L74.9416104,23.0990213 C74.0245804,23.3162979 72.6888722,23.1635745 71.271928,23.0029787 L71.2078765,22.9966809 C70.2314816,22.8848936 69.1332327,22.7605106 68.0521683,22.7605106 L68.0506061,22.7605106 L69.5644087,20.6428511 C69.5894044,20.6082128 69.5925289,20.5641277 69.5722198,20.5263404 C69.5550353,20.4901277 69.5175417,20.4680851 69.4769237,20.4680851 L69.4753615,20.4680851 L67.4678937,20.5137447 C57.7398765,20.7325957 55.1262628,27.5563404 55.0137821,27.8649362 L54.6857134,28.7025532 C54.6732156,28.7340426 54.67634,28.7686809 54.6935246,28.7985957 C54.7107091,28.8269362 54.7388293,28.8474043 54.7716362,28.8521277 L54.8731812,28.8678723 C55.0153443,28.8883404 58.3460224,29.3874468 59.7973357,29.7196596 C61.3439452,30.0739149 63.2686147,30.514766 65.3276362,30.514766 C69.512855,30.514766 73.0231898,28.6742128 76.0586061,24.8891915 L77.891104,22.6014894 C77.9192241,22.5652766 77.9223486,22.5148936 77.8973529,22.4755319" id="Fill-1" fill="#66992C"></path>
                <path d="M57.8587499,20.7523069 C57.8759344,20.7617537 57.8931189,20.7649026 57.9103035,20.7649026 C57.9384237,20.7649026 57.9634194,20.7554558 57.9837284,20.7365622 C58.0024752,20.7208175 59.7646726,19.1117111 62.3767241,18.3071579 C62.4048443,18.2977111 62.4282777,18.2788175 62.4423378,18.2520515 C62.4548357,18.2252856 62.4563979,18.1937962 62.4485868,18.1654558 C62.4235911,18.0946047 61.8268185,16.3941792 60.1661662,15.7517962 C60.1255481,15.7360515 60.0786812,15.7470728 60.0474365,15.7785622 C60.0318142,15.7958813 58.2868014,17.6332856 57.8040717,20.6389451 C57.7962606,20.6846047 57.8196941,20.7302643 57.8587499,20.7523069" id="Fill-3" fill="#66992C"></path>
                <path d="M76.3884464,34.6496756 L74.2106953,35.7470799 C74.1747639,35.7659735 74.1497682,35.8037608 74.1497682,35.8446969 L74.1497682,69.9586969 C67.8336652,72.2857608 62.3908498,70.769548 56.9495966,69.4343991 C52.7018884,68.3936756 48.688515,67.4112076 44.4970472,67.8803991 L43.5284635,67.9890374 C43.4737854,67.9953352 43.4316052,68.0425693 43.4316052,68.0992501 L43.4316052,69.6438033 L34.6768584,69.6438033 L34.6768584,68.0992501 C34.6768584,68.0425693 34.6346781,67.9953352 34.58,67.9890374 L33.6114163,67.8803991 C29.4215107,67.4112076 25.4065751,68.3936756 21.158867,69.4343991 C15.7176137,70.769548 10.2747983,72.2857608 3.95869528,69.9586969 L3.95869528,35.8446969 C3.95869528,35.8037608 3.93369957,35.7659735 3.89776824,35.7470799 L1.72001717,34.6496756 C1.6872103,34.6323565 1.64503004,34.6355054 1.61378541,34.6543991 C1.58097854,34.6748671 1.56223176,34.7110799 1.56223176,34.7472927 L1.56223176,71.6040161 C1.56223176,71.6496756 1.59035193,71.6921863 1.63409442,71.707931 L2.35896996,71.9661437 C4.92727897,72.8856331 7.52839485,73.6020161 10.3107296,73.6020161 C14.2991073,73.6020161 18.0734592,72.6762288 21.7259571,71.7803565 C25.3940773,70.8813352 28.8575451,70.0311225 32.2819571,70.1964416 L32.2819571,71.9472501 C32.2819571,72.0086544 32.3303863,72.0574629 32.3897511,72.0574629 L45.7187124,72.0574629 C45.7780773,72.0574629 45.8280687,72.0086544 45.8280687,71.9472501 L45.8280687,70.1964416 C49.2509185,70.0311225 52.7143863,70.8813352 56.3840687,71.7803565 C60.0350043,72.6762288 63.8093562,73.6020161 67.7977339,73.6020161 C70.5800687,73.6020161 73.1811845,72.8856331 75.7494936,71.9661437 L76.4743691,71.707931 C76.5181116,71.6921863 76.547794,71.6496756 76.547794,71.6040161 L76.547794,34.7472927 C76.547794,34.7110799 76.527485,34.6748671 76.4946781,34.6543991 C76.4634335,34.6355054 76.4212532,34.6323565 76.3884464,34.6496756" id="Fill-5" fill="#66992C"></path>
                <path d="M34.9377511,30.168321 C34.9377511,30.1116401 34.8940086,30.0644061 34.8377682,30.0596827 L33.8613734,29.9809593 C29.3730815,29.6282784 24.6707639,30.7555976 20.5199142,31.7506614 C16.0956738,32.8102784 11.9198283,33.8116401 9.56554506,32.5662359 L7.97050644,31.7207465 C7.93769957,31.7050018 7.89551931,31.7050018 7.86427468,31.7254699 C7.82990558,31.7443635 7.8111588,31.7805763 7.8111588,31.8183635 L7.8111588,65.6662784 C7.8111588,65.7072146 7.83303004,65.7434274 7.86896137,65.762321 C7.86896137,65.762321 10.1201373,66.3858103 11.6261288,66.3858103 C14.7709013,66.3858103 17.9281717,65.4127891 21.0745064,64.6570444 C25.1222489,63.6887465 29.7073991,62.5881933 33.8769957,62.9644912 L34.8190215,63.0510869 C34.8487039,63.0526614 34.8799485,63.0432146 34.903382,63.0227465 C34.9252532,63.0022784 34.9377511,62.9723635 34.9377511,62.9408742 L34.9377511,60.7381933 C34.9377511,60.679938 34.8955708,60.632704 34.8393305,60.6279806 L34.0925837,60.5602784 C29.5371159,60.1477678 24.7504378,61.295555 20.5199142,62.3095125 C20.5136652,62.3110869 20.5058541,62.3126614 20.4980429,62.3142359 C16.4503004,63.2856827 12.632206,64.4681082 10.2060601,63.6651295 L10.2060601,35.3404486 C13.150867,36.0001508 16.8267983,35.1184486 21.0745064,34.0997678 L21.1073133,34.0918954 C24.7066953,33.2275125 28.7825579,32.2481933 32.5694077,32.3332146 L32.5740944,35.9560657 C32.4303691,35.9544912 32.2866438,35.9529167 32.1413562,35.9529167 C28.1795365,35.9529167 24.1239828,36.925938 20.5261631,37.787172 C18.5483777,38.2626614 16.6783863,38.7113848 14.9880515,38.9664486 L14.303794,39.0703635 C14.2506781,39.0782359 14.2116223,39.1238954 14.2116223,39.1790018 L14.2116223,41.3990018 C14.2116223,41.4304912 14.2256824,41.4604061 14.2491159,41.4824486 C14.2725494,41.5029167 14.3053562,41.5123635 14.3366009,41.5076401 L15.3442403,41.3533423 C17.1345579,41.0825337 19.0529785,40.6227891 21.0823176,40.1362784 C25.0581974,39.1821508 29.5652361,38.1036401 33.6785923,38.4264061 L34.8205837,38.5161508 C34.8502661,38.5192997 34.8815107,38.5082784 34.903382,38.4878103 C34.9252532,38.4673423 34.9377511,38.4374274 34.9377511,38.405938 L34.9377511,30.168321 Z" id="Fill-7" fill="#66992C"></path>
                <path d="M34.7862146,42.7639468 C34.7862146,42.7072659 34.7440343,42.6600319 34.6862318,42.6553085 L33.7145236,42.5781595 C29.2309185,42.2207553 24.5270386,43.3512234 20.3761888,44.3462872 C18.3984034,44.8202021 16.528412,45.2689255 14.8380773,45.5239893 L14.1522575,45.6279042 C14.0991416,45.637351 14.0600858,45.6830106 14.0600858,45.7365425 L14.0600858,47.9565425 C14.0600858,47.9880319 14.0741459,48.0195212 14.0975794,48.0399893 C14.1178884,48.0573085 14.1428841,48.0667553 14.1694421,48.0667553 C14.1741288,48.0667553 14.1803777,48.0667553 14.1850644,48.0651808 L15.1942661,47.9124574 C16.9845837,47.6416489 18.9014421,47.1819042 20.9354678,46.6938191 C24.9129099,45.7396915 29.4215107,44.6611808 33.5270558,44.9839468 L34.6690472,45.0784149 C34.6987296,45.0815638 34.728412,45.0705425 34.7518455,45.0500744 C34.7737167,45.0280319 34.7862146,44.9996915 34.7862146,44.9682021 L34.7862146,42.7639468 Z" id="Fill-9" fill="#66992C"></path>
                <path d="M34.7862146,49.0618913 C34.7862146,49.0036359 34.7440343,48.9579764 34.6862318,48.953253 L33.7145236,48.876104 C29.2293562,48.5186998 24.5286009,49.6475934 20.3761888,50.6426572 C18.3984034,51.1181466 16.528412,51.56687 14.8380773,51.8219338 L14.1522575,51.9258487 C14.0991416,51.9352955 14.0600858,51.9809551 14.0600858,52.034487 L14.0600858,54.254487 C14.0600858,54.2859764 14.0741459,54.3174657 14.0975794,54.3379338 C14.1178884,54.355253 14.1428841,54.3646998 14.1694421,54.3646998 C14.1741288,54.3646998 14.1803777,54.3646998 14.1850644,54.3631253 L15.1942661,54.2104019 C16.9845837,53.9395934 18.9014421,53.4798487 20.9307811,52.9933381 C24.9097854,52.0392104 29.4152618,50.9559764 33.528618,51.2818913 L34.6690472,51.368487 C34.6987296,51.3716359 34.7299742,51.3606147 34.7518455,51.3401466 C34.7737167,51.3196785 34.7862146,51.2913381 34.7862146,51.2598487 L34.7862146,49.0618913 Z" id="Fill-11" fill="#66992C"></path>
                <path d="M33.7145236,55.1734418 C29.2309185,54.8176121 24.5254764,55.9465057 20.3761888,56.9415695 C18.3968412,57.4154844 16.528412,57.8642078 14.8380773,58.1208461 L14.1522575,58.224761 C14.0975794,58.2326333 14.0600858,58.2782929 14.0600858,58.3333993 L14.0600858,60.5533993 C14.0600858,60.5848886 14.0741459,60.6148035 14.0960172,60.6352716 C14.1163262,60.6525908 14.1428841,60.6620376 14.1678798,60.6620376 C14.1725665,60.6620376 14.1788155,60.6620376 14.1850644,60.6604631 L15.1942661,60.5077397 C16.9845837,60.2369312 18.9014421,59.7771865 20.9354678,59.2891014 C24.9113476,58.3349738 29.4199485,57.2548886 33.5270558,57.5808035 L34.667485,57.6752716 C34.6987296,57.6768461 34.7268498,57.6673993 34.7502833,57.6469312 C34.7737167,57.6264631 34.7862146,57.5965482 34.7862146,57.5666333 L34.7862146,55.3592291 C34.7862146,55.3025482 34.7424721,55.2553142 34.6846695,55.2505908 L33.7145236,55.1734418 Z" id="Fill-13" fill="#66992C"></path>
                <g id="Group-17" transform="translate(18.746781, 0.000000)">
                    <mask id="mask-2" fill="white">
                        <use xlink:href="#path-1"></use>
                    </mask>
                    <g id="Clip-16"></g>
                    <path d="M8.44761202,28.1368468 C8.46792103,28.1793574 8.51322575,28.2045489 8.5600927,28.1982511 L9.33964635,28.0959106 C11.3892944,27.8282511 13.5732944,27.6314426 15.835406,27.511783 C15.8932086,27.508634 15.9385133,27.4598255 15.9385133,27.4015702 L15.9385133,25.2020383 C15.9385133,25.1721234 15.9260155,25.143783 15.9041442,25.1217404 C15.882273,25.1012723 15.8510283,25.0871021 15.8244704,25.0934 C13.7685734,25.2004638 11.7751657,25.3689319 9.89423863,25.5940809 L5.75901116,16.9156128 L12.85623,20.1920809 C12.8937236,20.2094 12.9359039,20.2031021 12.9687107,20.1779106 L20.8923502,13.9792298 L28.8144275,20.1779106 C28.8472343,20.2031021 28.8894146,20.2094 28.9269082,20.1920809 L36.0225648,16.9156128 L31.8888996,25.5940809 C28.359818,25.1721234 24.6604532,24.9564213 20.8923502,24.9564213 L19.8034747,24.9564213 C19.7409854,24.9564213 19.6925562,25.0068043 19.6925562,25.066634 L19.6925562,66.7475277 C19.6925562,66.7868894 19.7144275,66.8231021 19.7456721,66.8419957 C19.7800412,66.8624638 19.8206592,66.8640383 19.8550283,66.8451447 L21.4625648,65.965017 C26.910067,62.9861234 33.7292086,64.6204213 39.7438009,66.062634 C42.8901356,66.8168043 46.047406,67.7914 49.1921785,67.7914 C50.69817,67.7914 52.9493459,67.1679106 52.9493459,67.1679106 C52.9852773,67.149017 53.0071485,67.1112298 53.0071485,67.0718681 L53.0071485,33.2239532 C53.0071485,33.186166 52.9884017,33.1499532 52.9540326,33.1294851 C52.922788,33.1105915 52.8806077,33.109017 52.8478009,33.1263362 L51.2527622,33.9718255 C48.9000412,35.2172298 44.7210712,34.2158681 40.2983931,33.1562511 C36.1475433,32.1596128 31.4436635,31.0307191 26.9584961,31.3865489 L25.9821013,31.4636979 C25.9258609,31.4684213 25.8805562,31.5156553 25.8805562,31.5739106 L25.8805562,39.8115277 C25.8805562,39.843017 25.8930541,39.8713574 25.9164876,39.8918255 C25.9383588,39.9122936 25.9680412,39.9248894 25.9977236,39.9217404 L27.139715,39.8304213 C31.2499468,39.5060809 35.7569854,40.5877404 39.7359897,41.5418681 C41.7653288,42.0283787 43.6821871,42.4881234 45.474067,42.7589319 L46.539509,42.9211021 C46.5691914,42.9258255 46.6019983,42.9163787 46.6254318,42.8959106 C46.6504275,42.8738681 46.6644876,42.8439532 46.6644876,42.8124638 L46.6644876,40.5924638 C46.6644876,40.5373574 46.6238695,40.4916979 46.5707536,40.4838255 L45.8302558,40.3720383 C44.139921,40.1154 42.2699296,39.6666766 40.290582,39.1927617 C36.563097,38.2984638 32.3388223,37.2860809 28.2442129,37.3616553 L28.2488996,33.7388043 C32.0498094,33.6585064 36.1334833,34.6378255 39.7500498,35.5053574 C43.9946335,36.5240383 47.6690026,37.4057404 50.6122472,36.7460383 L50.6122472,65.0707191 C48.1829768,65.8736979 44.3508223,64.6849745 40.2952687,63.7135277 C34.4931399,62.3216979 27.9223931,60.7456553 22.0890197,63.0191872 L22.0890197,27.3795277 C25.6493459,27.4236128 29.1315605,27.6645064 32.4419296,28.0959106 L33.2214833,28.1982511 C33.2699124,28.2045489 33.3152172,28.1793574 33.3355262,28.1368468 L40.9217236,12.2126766 C40.9420326,12.170166 40.9342215,12.1213574 40.9014146,12.0882936 C40.87017,12.0552298 40.8201785,12.045783 40.7779983,12.0646766 L29.1893631,17.4147191 L22.0890197,11.8615702 L22.0890197,7.2200383 L25.9727279,7.2200383 C26.0336549,7.2200383 26.0820841,7.17122979 26.0820841,7.1114 L26.0820841,4.91501702 C26.0820841,4.85518723 26.0336549,4.80637872 25.9727279,4.80637872 L22.0890197,4.80637872 L22.0890197,0.892251064 C22.0890197,0.830846809 22.0405906,0.782038298 21.9796635,0.782038298 L19.8034747,0.782038298 C19.7409854,0.782038298 19.6925562,0.830846809 19.6925562,0.892251064 L19.6925562,4.80637872 L15.8104103,4.80637872 C15.7494833,4.80637872 15.7010541,4.85518723 15.7010541,4.91501702 L15.7010541,7.1114 C15.7010541,7.17122979 15.7494833,7.2200383 15.8104103,7.2200383 L19.6925562,7.2200383 L19.6925562,11.8615702 L12.5922129,17.4147191 L1.00357768,12.0646766 C0.962959657,12.045783 0.91296824,12.0552298 0.880161373,12.0882936 C0.848916738,12.1213574 0.841105579,12.170166 0.861414592,12.2126766 L8.44761202,28.1368468 Z" id="Fill-15" fill="#66992C" mask="url(#mask-2)"></path>
                </g>
                <path d="M64.5264206,45.7455269 C64.5264206,45.6904206 64.4873648,45.644761 64.4326867,45.6368886 L63.6906266,45.5235269 C62.0002918,45.2684631 60.1318627,44.8197397 58.152515,44.3458248 C54.0032275,43.350761 49.3009099,42.2218674 44.8141803,42.5776972 L43.8440343,42.6548461 C43.787794,42.6595695 43.7424893,42.7068035 43.7424893,42.7634844 L43.7424893,44.9645908 C43.7424893,44.9960801 43.7549871,45.0244206 43.7784206,45.0464631 C43.8002918,45.0669312 43.8299742,45.0779525 43.8596567,45.0748035 L45.0016481,44.9834844 C49.1150043,44.659144 53.6220429,45.7408035 57.5963605,46.6949312 C59.6272618,47.1814418 61.5441202,47.6411865 63.3344378,47.911995 L64.4014421,48.0741652 C64.4061288,48.0741652 64.4123777,48.0741652 64.4170644,48.0741652 C64.4420601,48.0741652 64.468618,48.0647184 64.488927,48.0473993 C64.5123605,48.0269312 64.5264206,47.9970163 64.5264206,47.9655269 L64.5264206,45.7455269 Z" id="Fill-18" fill="#66992C"></path>
                <path d="M64.5264206,52.0434027 C64.5264206,51.9882963 64.4873648,51.9426367 64.4326867,51.9347644 L63.6906266,51.8214027 C62.0002918,51.5663388 60.1318627,51.1176154 58.152515,50.6421261 C54.0032275,49.6486367 49.2993476,48.5197431 44.8141803,48.8755729 L43.8440343,48.9527218 C43.787794,48.9574452 43.7424893,49.0031048 43.7424893,49.0613601 L43.7424893,51.2545941 C43.7424893,51.2860835 43.7549871,51.3144239 43.7784206,51.334892 C43.7987296,51.3553601 43.8268498,51.3663814 43.8596567,51.3632324 L45.0016481,51.2813601 C49.1134421,50.9585941 53.6220429,52.0386793 57.5963605,52.9928069 C59.6272618,53.4793176 61.5441202,53.9390622 63.3344378,54.2098707 L64.4014421,54.372041 C64.4061288,54.372041 64.4123777,54.372041 64.4170644,54.372041 C64.4420601,54.372041 64.468618,54.3625941 64.488927,54.345275 C64.5123605,54.3248069 64.5264206,54.294892 64.5264206,54.2634027 L64.5264206,52.0434027 Z" id="Fill-20" fill="#66992C"></path>
                <path d="M63.6906266,58.1208461 C62.0002918,57.8642078 60.1318627,57.4154844 58.152515,56.9415695 C54.0047897,55.9465057 49.3009099,54.8176121 44.8141803,55.1734418 L43.8440343,55.2505908 C43.787794,55.2553142 43.7424893,55.3025482 43.7424893,55.3592291 L43.7424893,57.5634844 C43.7424893,57.5949738 43.7549871,57.6248886 43.7784206,57.6453567 C43.8018541,57.6658248 43.8299742,57.6768461 43.8612189,57.6736972 L45.0016481,57.5808035 C49.1150043,57.2548886 53.6220429,58.3365482 57.5979227,59.2906759 C59.6272618,59.7771865 61.5441202,60.2369312 63.3344378,60.5077397 L64.4014421,60.6699099 C64.4061288,60.6699099 64.4123777,60.6714844 64.4170644,60.6714844 C64.4420601,60.6714844 64.468618,60.6620376 64.488927,60.6447184 C64.5123605,60.6226759 64.5264206,60.592761 64.5264206,60.5612716 L64.5264206,58.3412716 C64.5264206,58.2877397 64.4873648,58.2420801 64.4342489,58.2326333 L63.6906266,58.1208461 Z" id="Fill-22" fill="#66992C"></path>
                <g id="Group-26" transform="translate(0.000000, 20.468085)">
                    <mask id="mask-4" fill="white">
                        <use xlink:href="#path-3"></use>
                    </mask>
                    <g id="Clip-25"></g>
                    <path d="M6.86553991,4.86809787 L6.85304206,4.75945957 L6.87178884,4.86809787 C8.62305064,4.66814043 10.4336773,4.46345957 11.9396687,4.86967234 L14.6532652,5.6065234 C14.69857,5.61911915 14.7454369,5.60022553 14.7719948,5.5624383 C14.7969906,5.52465106 14.7969906,5.47269362 14.7704326,5.43490638 L12.7426558,2.6024383 C16.7903983,3.27945957 18.9431536,5.40184255 19.9211107,6.72282128 C19.208733,6.8204383 18.4385528,6.99677872 17.6261923,7.18256596 C14.0846129,7.99341702 9.6931794,8.99950213 5.34392618,5.02554468 C5.83915365,4.98460851 6.34063004,4.92792766 6.86553991,4.86809787 M12.5879948,10.1551617 C14.6438918,10.1551617 16.5701236,9.71588511 18.1182953,9.36162979 C19.552424,9.03256596 22.8971622,8.53031064 23.0408876,8.50826809 L23.1424326,8.49409787 C23.1752395,8.4878 23.2049219,8.46890638 23.2221064,8.44056596 C23.2377288,8.41065106 23.239291,8.37601277 23.2283554,8.3445234 L22.9018489,7.50690638 C22.7956172,7.21562979 20.1929391,0.374565957 10.4477373,0.155714894 L8.44026953,0.110055319 L8.43714506,0.110055319 C8.39652704,0.110055319 8.36059571,0.132097872 8.3402867,0.168310638 C8.32310215,0.206097872 8.32622661,0.250182979 8.34966009,0.283246809 L9.86502489,2.40248085 L9.86346266,2.40248085 C8.78239828,2.40248085 7.68258712,2.52686383 6.70619227,2.6370766 L6.63745408,2.64494894 C5.22519657,2.80554468 3.89105064,2.95826809 2.9740206,2.74099149 L0.13232103,2.06869362 C0.0885785408,2.05609787 0.041711588,2.07656596 0.0167158798,2.11592766 C-0.00827982833,2.15528936 -0.00515536481,2.20724681 0.0245270386,2.24345957 L1.85702489,4.5311617 C4.89087897,8.31618298 8.40121373,10.1551617 12.5879948,10.1551617" id="Fill-24" fill="#66992C" mask="url(#mask-4)"></path>
                    <path d="M15.7000884,-2.1616228 C18.3121399,-1.35549514 20.0743373,0.252036778 20.0915218,0.267781459 C20.1118308,0.288249544 20.1383888,0.297696353 20.1649467,0.297696353 C20.1821313,0.297696353 20.2008781,0.292972949 20.2180626,0.28352614 C20.2571184,0.261483587 20.2805519,0.215824012 20.2727407,0.170164438 C19.7884489,-2.83549514 18.0449982,-4.67289939 18.0278137,-4.69021854 C17.9981313,-4.7217079 17.9497021,-4.73115471 17.9106463,-4.7169845 C16.2499939,-4.07460152 15.6532214,-2.37417599 15.6282257,-2.30175046 C15.6188523,-2.27341003 15.6204145,-2.24349514 15.6344746,-2.21672918 C15.6485347,-2.18996322 15.670406,-2.16949514 15.7000884,-2.1616228" id="Fill-27" fill="#66992C" mask="url(#mask-4)"></path>
                </g>
                <path d="M102.362112,33.2402047 L102.329305,37.4062472 C102.604258,37.4723749 103.024498,37.5054387 103.585339,37.5054387 C104.974163,37.5054387 106.04273,37.07246 106.792601,36.2065026 C107.542472,35.3389706 107.917408,34.284077 107.917408,33.0402472 C107.917408,32.2955238 107.820549,31.5885877 107.628395,30.9162898 C107.434678,30.2439919 107.150352,29.6378217 106.776979,29.0993536 C106.402043,28.5608855 105.900567,28.1389281 105.272549,27.8334813 C104.644532,27.5280345 103.938403,27.3973536 103.155725,27.4414387 L102.477717,27.4745026 C102.44491,27.8193111 102.405854,29.7401621 102.362112,33.2402047 M102.67612,48.0197366 L97.6676052,48.0197366 L97.700412,46.6877366 L97.700412,46.6704174 L97.700412,46.6530983 L97.700412,46.6373536 L97.700412,46.6027153 L97.700412,46.5869706 L97.700412,46.5696515 L97.700412,46.5539068 L97.700412,46.5365877 L97.700412,46.520843 L97.700412,46.5035238 L97.700412,46.47046 L97.700412,46.4531409 L97.700412,46.4373962 L97.700412,46.420077 L97.700412,46.4027579 L97.700412,46.3870132 L97.700412,46.3539494 L97.700412,46.3366302 L97.700412,46.3208855 L97.700412,46.3035664 L97.700412,46.2878217 L97.700412,46.2705026 L97.700412,46.2374387 L97.700412,46.2201196 L97.700412,46.2028004 L97.700412,46.1870557 L97.700412,46.1697366 L97.700412,46.1366728 L97.700412,46.1209281 L97.700412,46.1036089 L97.700412,46.0878643 L97.700412,46.0705451 L97.700412,46.053226 L97.700412,46.0201621 L97.700412,46.002843 L97.700412,45.9870983 L97.700412,45.9697792 L97.700412,45.9540345 L97.700412,45.9209706 L97.700412,45.9036515 L97.700412,45.8863323 L97.700412,45.8705877 L97.700412,45.8532685 L97.700412,45.8202047 L97.700412,45.8028855 L97.700412,45.7871409 L97.700412,45.7698217 L97.700412,45.7367579 L97.700412,45.7210132 L97.700412,45.703694 L97.700412,45.6863749 L97.700412,45.6706302 L97.700412,45.6375664 L97.700412,45.6202472 L97.700412,45.6045026 L97.700412,45.5871834 L97.700412,45.5541196 L97.700412,45.5368004 L97.700412,45.5210557 L97.700412,45.5037366 L97.700412,45.4864174 L97.700412,45.4533536 L97.700412,45.4376089 L97.700412,45.4202898 L97.700412,45.4045451 L97.700412,45.3714813 L97.700412,45.3541621 L97.700412,45.336843 L97.700412,45.3210983 L97.700412,45.28646 L97.700412,45.2707153 L97.700412,45.2533962 L97.700412,45.2376515 L97.700412,45.2045877 L97.700412,45.1872685 L97.700412,45.1699494 L97.700412,45.1542047 L97.700412,45.1195664 L97.700412,45.1038217 L97.700412,45.0865026 L97.700412,45.0707579 L97.700412,45.037694 L97.700412,45.0203749 L97.700412,45.0046302 L97.700412,44.9699919 L97.700412,44.9542472 L97.700412,44.9369281 L97.700412,44.9196089 L97.700412,44.8865451 L97.700412,44.8708004 L97.700412,44.8534813 L97.700412,44.8377366 L97.700412,44.8046728 L97.700412,44.7873536 L97.700412,44.7700345 L97.700412,44.7369706 L97.700412,44.721226 L97.700412,44.7039068 L97.700412,44.6881621 L97.700412,44.6550983 L97.700412,44.6377792 L97.700412,44.62046 L97.700412,44.5873962 L97.700412,44.570077 L97.700412,44.5543323 L97.700412,44.5212685 L97.700412,44.5039494 L97.700412,44.4882047 L97.700412,44.4708855 L97.700412,44.4378217 L97.700412,44.4205026 L97.700412,44.4031834 L97.700412,44.3701196 L97.700412,44.3543749 L97.700412,44.3370557 L97.700412,44.3039919 L97.700412,44.2882472 L97.700412,44.2709281 L97.700412,44.2378643 L97.700412,44.2205451 L97.700412,44.203226 L97.700412,44.1701621 L97.700412,44.1544174 L97.700412,44.1370983 L97.700412,44.1040345 L97.700412,44.0882898 L97.700412,44.0709706 L97.700412,44.0536515 L97.700412,44.0205877 L97.700412,44.0032685 L97.700412,43.9875238 L97.700412,43.95446 L97.700412,43.9371409 L97.700412,43.904077 L97.700412,43.8883323 L97.700412,43.8710132 L97.700412,43.8379494 L97.700412,43.8206302 L97.700412,43.8033111 L97.700412,43.7702472 L97.700412,43.7545026 L97.700412,43.7371834 L97.700412,43.7041196 L97.700412,43.6883749 L97.700412,43.6710557 L97.700412,43.6379919 L97.700412,43.6206728 L97.700412,43.6049281 L97.700412,43.5718643 L97.700412,43.5545451 L97.700412,43.537226 L97.700412,43.5041621 L97.700412,43.486843 L97.700412,43.4537792 L97.700412,43.4380345 L97.700412,43.4207153 L97.700412,43.3876515 L97.700412,43.3719068 L97.700412,43.3545877 L97.700412,43.3215238 L97.700412,43.3042047 L97.700412,43.2711409 L97.700412,43.2538217 L97.700412,43.238077 L97.700412,43.2050132 L97.700412,43.187694 L97.700412,43.1719494 L97.700412,43.1373111 L97.700412,43.1215664 L97.700412,43.0869281 L97.700412,43.0711834 L97.700412,43.0538643 L97.700412,43.0208004 L97.700412,43.0050557 L97.700412,42.9719919 L97.700412,42.9546728 L97.700412,42.9373536 L97.700412,42.9042898 L97.700412,42.8869706 L97.700412,42.8539068 L97.700412,42.8381621 L97.700412,42.820843 L97.700412,42.7877792 L97.700412,42.77046 L97.700412,42.7373962 L97.700412,42.720077 L97.700412,42.7043323 L97.700412,42.6712685 L97.700412,42.6539494 L97.700412,42.6208855 L97.700412,42.6051409 L97.700412,42.5705026 L97.700412,42.5547579 L97.700412,42.5374387 L97.700412,42.5043749 L97.700412,42.4886302 L97.700412,42.4555664 L97.700412,42.4382472 L97.700412,42.4209281 L97.700412,42.3878643 L97.700412,42.3705451 L97.700412,42.3374813 L97.700412,42.3217366 L97.700412,42.2886728 L97.700412,42.2713536 L97.700412,42.2556089 L97.700412,42.2209706 L97.700412,42.205226 L97.700412,42.1705877 L97.700412,42.154843 L97.700412,42.1217792 L97.700412,42.10446 L97.700412,42.0713962 L97.700412,42.054077 L97.700412,42.0383323 L97.700412,42.003694 L97.700412,41.9879494 L97.700412,41.9548855 L97.700412,41.9375664 L97.700412,41.9045026 L97.700412,41.8887579 L97.700412,41.8541196 L97.700412,41.8383749 L97.700412,41.8037366 L97.700412,41.7879919 L97.700412,41.7706728 L97.700412,41.7376089 L97.700412,41.7218643 L97.700412,41.6888004 L97.700412,41.6714813 L97.700412,41.6384174 L97.700412,41.6210983 L97.700412,41.5880345 L97.700412,41.5722898 L97.700412,41.539226 L97.700412,41.5219068 L97.700412,41.488843 L97.700412,41.4715238 L97.700412,41.43846 L97.700412,41.4211409 L97.700412,41.4053962 L97.700412,41.3723323 L97.700412,41.3550132 L97.700412,41.3219494 L97.700412,41.3046302 L97.700412,41.2715664 L97.700412,41.2542472 L97.700412,41.2211834 L97.700412,41.2054387 L97.700412,41.1723749 L97.700412,41.1550557 L97.700412,41.1219919 L97.700412,41.1046728 L97.700412,41.0716089 L97.700412,41.0542898 L97.700412,41.021226 L97.700412,41.0054813 L97.700412,40.9724174 L97.700412,40.9550983 L97.700412,40.9220345 L97.700412,40.9047153 L97.700412,40.8716515 L97.700412,40.8543323 L97.700412,40.8212685 L97.700412,40.8055238 L97.700412,40.77246 L97.700412,40.7551409 L97.700412,40.722077 L97.700412,40.7047579 L97.700412,40.671694 L97.700412,40.6543749 L97.700412,40.6213111 L97.700412,40.6055664 L97.700412,40.5709281 L97.700412,40.5378643 L97.700412,40.5221196 L97.700412,40.4890557 L97.700412,40.4717366 L97.700412,40.4386728 L97.700412,40.4213536 L97.700412,40.3882898 L97.700412,40.3709706 L97.700412,40.3379068 L97.700412,40.3221621 L97.700412,40.2890983 L97.700412,40.2717792 L97.700412,40.2387153 L97.700412,40.2213962 L97.700412,40.1883323 L97.700412,40.1710132 L97.700412,40.1379494 L97.700412,40.1048855 L97.700412,40.0891409 L97.700412,40.056077 L97.700412,40.0387579 L97.700412,40.005694 L97.700412,39.9883749 L97.700412,39.9553111 L97.700412,39.9379919 L97.700412,39.9049281 L97.700412,39.8891834 L97.700412,39.8561196 L97.700412,39.8214813 L97.700412,39.8041621 L97.700412,39.7710983 L97.700412,39.7553536 L97.700412,39.7222898 L97.700412,39.7049706 L97.700412,39.6719068 L97.700412,39.638843 L97.700412,39.6215238 L97.700412,39.58846 L97.700412,39.5711409 L97.700412,39.538077 L97.700412,39.5223323 L97.700412,39.4892685 L97.700412,39.4719494 L97.700412,39.4388855 L97.700412,39.4058217 L97.700412,39.3885026 L97.700412,39.3554387 L97.700412,39.339694 L97.700412,39.3050557 L97.700412,39.2719919 L97.700412,39.2546728 L97.700412,39.2216089 L97.700412,39.2058643 L97.700412,39.1728004 L97.700412,39.1554813 L97.700412,39.1224174 L97.700412,39.0893536 L97.700412,39.0720345 L97.700412,39.0389706 L97.700412,39.0216515 L97.700412,38.9885877 L97.700412,38.9555238 L97.700412,38.9382047 L97.700412,38.9051409 L97.700412,38.8878217 L97.700412,38.8547579 L97.700412,38.821694 L97.700412,38.8059494 L97.700412,38.7728855 L97.700412,38.7555664 L97.700412,38.7225026 L97.700412,38.6878643 L97.700412,38.6721196 L97.700412,38.6390557 L97.700412,38.6217366 L97.700412,38.5886728 L97.700412,38.5556089 L97.700412,38.5382898 L97.700412,38.505226 L97.700412,38.4879068 L97.700412,38.4564174 L97.700412,38.4233536 L97.700412,38.4060345 L97.700412,38.3729706 L97.700412,38.3383323 L97.700412,38.3225877 L97.700412,38.2895238 L97.700412,38.2722047 L97.700412,38.2391409 L97.700412,38.206077 L97.700412,38.1887579 L97.700412,38.155694 L97.700412,38.1226302 L97.700412,38.1053111 L97.700412,38.0722472 L97.700412,38.0565026 L97.700412,38.0218643 L97.700412,37.9888004 L97.700412,37.9714813 L97.700412,37.9384174 L97.700412,37.9053536 L97.700412,37.8896089 L97.700412,37.8565451 L97.700412,37.8219068 L97.700412,37.8061621 L97.700412,37.7715238 L97.700412,37.73846 L97.700412,37.7227153 L97.700412,37.6896515 L97.700412,37.6723323 L97.700412,37.6392685 L97.700412,37.6062047 L97.700412,37.5888855 L97.700412,37.5558217 L97.700412,37.5227579 L97.700412,37.5054387 L97.700412,37.4723749 L97.700412,37.4393111 L97.700412,37.4219919 L97.700412,37.3889281 L97.700412,37.3558643 L97.700412,37.3401196 L97.700412,37.3054813 L97.700412,37.2724174 L97.700412,37.2550983 L97.700412,37.2220345 L97.700412,37.1889706 L97.700412,37.173226 L97.700412,37.1401621 L97.700412,37.1055238 L97.700412,37.0897792 L97.700412,37.0551409 L97.700412,37.022077 L97.700412,37.0063323 L97.700412,36.9732685 L97.700412,36.9402047 L97.700412,36.9228855 L97.700412,36.8898217 L97.700412,36.8551834 L97.700412,36.8221196 L97.700412,36.8063749 L97.700412,36.7733111 L97.700412,36.7402472 L97.700412,36.7229281 L97.700412,36.6882898 L97.700412,36.655226 L97.700412,36.6394813 L97.700412,36.6064174 L97.700412,36.5733536 L97.700412,36.5560345 L97.700412,36.5229706 L97.700412,36.4883323 L97.700412,36.4552685 L97.700412,36.4395238 L97.700412,36.40646 L97.700412,36.3733962 L97.700412,36.356077 L97.700412,36.3230132 L97.700412,36.2899494 L97.700412,36.2726302 L97.700412,36.2395664 L97.700412,36.2065026 L97.700412,36.1734387 L97.700412,36.1561196 L97.700412,36.1230557 L97.700412,36.0899919 L97.700412,36.0726728 L97.700412,36.0396089 L97.700412,36.0065451 L97.700412,35.9734813 L97.700412,35.9561621 L97.700412,35.9230983 L97.700412,35.8900345 L97.700412,35.8569706 L97.700412,35.8396515 L97.700412,35.8065877 L97.700412,35.7719494 L97.700412,35.7562047 L97.700412,35.7231409 L97.700412,35.690077 L97.700412,35.6570132 L97.700412,35.639694 L97.700412,35.6066302 L97.700412,35.5719919 L97.700412,35.5389281 L97.700412,35.5231834 L97.700412,35.4901196 L97.700412,35.4570557 L97.700412,35.4224174 L97.700412,35.4066728 L97.700412,35.3720345 L97.700412,35.3389706 L97.700412,35.3059068 L97.700412,35.2901621 L97.700412,35.2570983 L97.700412,35.22246 L97.700412,35.1893962 L97.700412,35.1736515 L97.700412,35.1405877 L97.700412,35.1059494 L97.700412,35.0728855 L97.700412,35.0555664 L97.700412,35.0225026 L97.700412,34.9894387 L97.700412,34.9563749 L97.700412,34.9406302 L97.700412,34.9059919 L97.700412,34.8729281 L97.700412,34.8398643 L97.700412,34.8225451 L97.700412,34.7894813 L97.700412,34.7564174 L97.700412,34.7233536 L97.700412,34.6902898 L97.700412,34.6729706 L97.700412,34.6399068 L97.700412,34.606843 L97.700412,34.5737792 L97.700412,34.55646 L97.700412,34.5233962 L97.700412,34.4903323 L97.700412,34.455694 L97.700412,34.4226302 L97.700412,34.4068855 L97.700412,34.3738217 L97.700412,34.3391834 L97.700412,34.3061196 L97.700412,34.2730557 L97.700412,34.2573111 L97.700412,34.2242472 L97.700412,34.1896089 L97.700412,34.1565451 L97.700412,34.1234813 L97.700412,34.1061621 L97.700412,34.0730983 L97.700412,34.0400345 L97.700412,34.0069706 L97.700412,33.9739068 L97.700412,33.9565877 L97.700412,33.9235238 L97.700412,33.89046 L97.700412,33.8573962 L97.700412,33.8243323 L97.700412,33.8070132 L97.700412,33.7739494 L97.700412,33.7393111 L97.700412,33.7062472 L97.700412,33.6731834 L97.700412,33.6401196 L97.700412,33.6243749 L97.700412,33.5897366 L97.700412,33.5566728 L97.700412,33.5236089 L97.700412,33.4905451 L97.700412,33.473226 L97.700412,33.4401621 L97.700412,33.4070983 L97.700412,33.37246 L97.700412,33.3393962 L97.700412,33.3063323 L97.700412,33.2732685 L97.700412,33.2575238 L97.700412,33.2228855 L97.700412,33.1898217 L97.700412,33.1567579 L97.700412,33.123694 L97.700412,33.0906302 L97.700412,33.0733111 L97.700412,33.0402472 L97.700412,33.0071834 L97.700412,32.9741196 L97.700412,32.9410557 L97.700412,32.9079919 L97.700412,32.8733536 L97.700412,32.8576089 L97.700412,32.8229706 L97.700412,32.7899068 L97.700412,32.756843 L97.700412,32.7237792 L97.700412,32.6907153 L97.700412,32.656077 L97.700412,32.6403323 L97.700412,32.6072685 L97.700412,32.5742047 L97.700412,32.5411409 L97.700412,32.5065026 L97.700412,32.4734387 L97.700412,32.4403749 L97.700412,32.4073111 L97.700412,32.3899919 L97.700412,32.3569281 L97.700412,32.3238643 L97.700412,32.2908004 L97.700412,32.2561621 L97.700412,32.2230983 L97.700412,32.1900345 L97.700412,32.1569706 L97.700412,32.1239068 L97.700412,32.1065877 L97.700412,32.0735238 L97.700412,32.04046 L97.700412,32.0073962 L97.700412,31.9743323 L97.700412,31.939694 L97.700412,31.9066302 L97.700412,31.8735664 L97.700412,31.8405026 L97.700412,31.8074387 L97.700412,31.7743749 L97.700412,31.7570557 L97.700412,31.7239919 L97.700412,31.6909281 L97.700412,31.6578643 L97.700412,31.6248004 L97.700412,31.5901621 L97.700412,31.5570983 L97.700412,31.5240345 L97.700412,31.4909706 L97.700412,31.4579068 L97.700412,31.424843 L97.700412,31.3902047 L97.700412,31.3571409 L97.700412,31.324077 L97.700412,31.2910132 L97.700412,31.273694 L97.700412,31.2406302 L97.700412,31.2075664 L97.700412,31.1745026 L97.700412,31.1414387 L97.700412,31.1083749 L97.700412,31.0737366 L97.700412,31.0406728 L97.700412,31.0076089 L97.700412,30.9745451 L97.700412,30.9414813 L97.700412,30.9084174 L97.700412,30.8737792 L97.700412,30.8407153 L97.700412,30.8076515 L97.700412,30.7745877 L97.700412,30.7415238 L97.700412,30.70846 L97.700412,30.6738217 L97.700412,30.6407579 L97.700412,30.607694 L97.700412,30.5746302 L97.700412,30.5415664 L97.700412,30.5069281 L97.700412,30.4738643 L97.700412,30.4408004 L97.700412,30.4077366 L97.700412,30.3746728 L97.700412,30.3416089 L97.700412,30.3069706 L97.700412,30.2739068 L97.700412,30.240843 L97.700412,30.2077792 L97.700412,30.1573962 L97.700412,30.1243323 L97.700412,30.0912685 L97.700412,30.0582047 L97.700412,30.0251409 L97.700412,29.992077 L97.700412,29.9574387 L97.700412,29.7921196 C97.700412,28.0145451 97.4192103,26.7754387 96.8583691,26.0748004 L97.1223863,25.3584174 L104.361768,25.1930983 C105.124137,25.1805026 105.861511,25.2419068 106.578575,25.3757366 C107.294077,25.5079919 107.997082,25.75046 108.686026,26.0999919 C109.37497,26.4510983 109.977991,26.8888004 110.496652,27.4162472 C111.015313,27.943694 111.430867,28.6222898 111.744876,29.4488855 C112.058884,30.2770557 112.21667,31.2122898 112.21667,32.2561621 C112.21667,33.6464174 111.819863,34.8981196 111.026249,36.0144174 C110.232635,37.1307153 109.179691,37.9950983 107.867416,38.6059919 C106.556704,39.2168855 105.13976,39.5223323 103.619708,39.5223323 C103.354129,39.5223323 102.924515,39.5002898 102.329305,39.4546302 C102.329305,44.0316089 102.44491,46.8861196 102.67612,48.0197366" id="Fill-29" fill="#445531"></path>
                <path d="M119.962215,33.2905532 C120.335588,32.8906383 120.698026,32.5379574 121.044841,32.2325106 C121.391657,31.9270638 121.811897,31.6074468 122.300876,31.275234 C122.791416,30.9414468 123.317888,30.683234 123.880292,30.5005957 C124.442695,30.316383 125.020721,30.2250638 125.615931,30.2250638 C126.99382,30.2250638 128.123313,30.6611915 129.005974,31.5318723 C129.887073,32.4057021 130.327622,33.4684681 130.327622,34.7233191 C130.327622,35.0460851 130.322936,36.1482128 130.312,38.0312766 C130.299502,39.9143404 130.294815,40.9613617 130.294815,41.1723404 C130.294815,43.7938298 130.415107,46.0594894 130.658815,47.9708936 L126.06273,47.9708936 L126.012738,47.6040426 C125.979931,47.36 125.964309,47.114383 125.964309,46.8703404 C125.964309,45.9823404 125.975245,44.5117872 125.995554,42.4634043 C126.018987,40.4134468 126.029923,38.9381702 126.029923,38.0391489 C126.029923,36.384383 125.889322,35.1988085 125.60812,34.4824255 C125.326918,33.7660426 124.789511,33.4070638 123.995897,33.4070638 C123.114798,33.4070638 122.361803,33.5566383 121.740034,33.8573617 C121.115142,34.1565106 120.523056,34.5627234 119.962215,35.0728511 L119.962215,36.8063404 L119.962215,41.1377021 C119.962215,42.3831064 119.990335,43.5907234 120.045013,44.7621277 C120.099691,45.9351064 120.198112,47.0041702 120.341837,47.9708936 L115.597339,47.9708936 C115.673888,44.2488511 115.714506,39.9190638 115.720755,34.9815319 C115.727004,30.044 115.741064,27.5705106 115.762936,27.5579149 C115.762936,26.4368936 115.583279,25.5394468 115.225528,24.8671489 C114.866215,24.1964255 114.472532,23.7996596 114.042918,23.6768511 L114.042918,23.0596596 L114.506901,22.8093191 C114.825597,22.6314043 115.272395,22.4597872 115.844172,22.2928936 C116.417511,22.1275745 116.968979,22.0425532 117.498575,22.0425532 C118.557768,22.0425532 119.282644,22.321234 119.679451,22.8770213 C120.07782,23.4328085 120.276223,24.2877447 120.276223,25.4434043 C120.276223,26.0086383 120.229356,27.1642979 120.135622,28.9088085 C120.041888,30.6517447 119.984086,32.1128511 119.962215,33.2905532" id="Fill-31" fill="#445531"></path>
                <path d="M137.906009,42.0036596 C138.254386,43.2648085 138.741803,44.2677447 139.36982,45.0124681 C139.997837,45.755617 140.691468,46.128766 141.453837,46.128766 C142.389614,46.128766 143.183227,45.5225957 143.833116,44.3118298 C144.484567,43.1010638 144.809511,41.5785532 144.809511,39.7458723 C144.809511,37.5794043 144.384584,35.742 143.536292,34.2305106 C142.688,32.7205957 141.667863,31.9648511 140.477442,31.9648511 C139.958781,31.9648511 139.494798,32.1569362 139.080807,32.5395319 C138.666815,32.9221277 138.341871,33.4165106 138.104412,34.0226809 C137.868515,34.6288511 137.688858,35.2633617 137.567004,35.9309362 C137.446712,36.5969362 137.385785,37.2519149 137.385785,37.8974468 C137.385785,39.3742979 137.559193,40.7440851 137.906009,42.0036596 M133.922318,34.5391064 C134.676876,33.1126383 135.734506,31.9837447 137.09521,31.1571489 C138.459039,30.3289787 139.986901,29.9148936 141.685047,29.9148936 C142.708309,29.9148936 143.681579,30.1006809 144.601734,30.4738298 C145.521888,30.8469787 146.346747,31.3870213 147.073185,32.0971064 C147.801185,32.808766 148.377648,33.7314043 148.802575,34.8634468 C149.22594,35.9970638 149.438403,37.269234 149.438403,38.6799574 C149.438403,40.3347234 149.066592,41.8792766 148.32297,43.3120426 C147.577785,44.7448085 146.520155,45.903617 145.148515,46.7868936 C143.775313,47.6701702 142.239639,48.1110213 140.543056,48.1110213 C139.727571,48.1110213 138.973013,48.0134043 138.27782,47.8197447 C137.584189,47.6245106 136.992103,47.3725957 136.501562,47.0608511 C136.011021,46.7506809 135.564223,46.3759574 135.161167,45.9366809 C134.759674,45.4974043 134.43473,45.0581277 134.186335,44.6204255 C133.93794,44.1811489 133.72079,43.707234 133.533322,43.1955319 C133.345854,42.6854043 133.205253,42.2288085 133.113082,41.8288936 C133.017785,41.4289787 132.945923,41.0259149 132.897494,40.6212766 C132.847502,40.2150638 132.816258,39.9237872 132.805322,39.7458723 C132.795948,39.5695319 132.7897,39.418383 132.7897,39.2955745 C132.7897,37.5526383 133.16776,35.9671489 133.922318,34.5391064" id="Fill-33" fill="#445531"></path>
                <path d="M160.539622,31.9979149 C160.088137,31.9979149 159.685082,32.1207234 159.333579,32.364766 C158.978953,32.6088085 158.682129,32.9677872 158.439983,33.4401277 C158.197837,33.9108936 157.996309,34.4052766 157.836961,34.9217021 C157.676052,35.4397021 157.530764,36.0474468 157.397974,36.7465106 C158.047863,36.7354894 159.028944,36.7024255 160.341219,36.6473191 C161.653494,36.5906383 162.66582,36.5575745 163.382884,36.5465532 C163.371948,36.0017872 163.311021,35.472766 163.201665,34.954766 C163.090747,34.4383404 162.92515,33.9534043 162.706438,33.498383 C162.484601,33.0417872 162.187777,32.6780851 161.811279,32.4057021 C161.437906,32.1333191 161.012979,31.9979149 160.539622,31.9979149 Z M167.450936,37.9793191 L167.152549,38.1131489 C166.590146,38.3351489 165.830901,38.4469362 164.870129,38.4469362 L157.365167,38.3461702 C157.387039,38.601234 157.397974,39.0231915 157.397974,39.6120426 C157.443279,41.268383 157.935382,42.5673191 158.87897,43.512 C159.820996,44.4566809 160.870815,44.9274468 162.026867,44.9274468 C163.018884,44.9274468 164.024961,44.6944255 165.045099,44.228383 C166.063674,43.7623404 166.958833,42.9514894 167.732137,41.7958298 C167.919605,42.5185106 167.919605,43.2097021 167.732137,43.8709787 C167.543107,44.5306809 167.215039,45.1037872 166.747931,45.5855745 C166.279262,46.0705106 165.715296,46.4924681 165.05291,46.8530213 C164.392086,47.2135745 163.675021,47.4859574 162.904841,47.6685957 C162.133099,47.8528085 161.355107,47.9441277 160.572429,47.9441277 C159.569476,47.9441277 158.635262,47.7851064 157.771348,47.4686383 C156.904309,47.1521702 156.120069,46.6751064 155.41394,46.0358723 C154.709373,45.3966383 154.148532,44.5385532 153.737665,43.461617 C153.323674,42.3846809 153.109648,41.1455745 153.098712,39.7458723 C153.098712,37.9131915 153.411159,36.2521277 154.034489,34.7642553 C154.656258,33.276383 155.556103,32.0955319 156.729339,31.2232766 C157.902575,30.3510213 159.244532,29.9148936 160.75521,29.9148936 C161.636309,29.9148936 162.433047,30.0235319 163.143863,30.239234 C163.854678,30.4565106 164.438953,30.7288936 164.895124,31.056383 C165.352858,31.3838723 165.749665,31.7869362 166.087107,32.264 C166.422987,32.7426383 166.676069,33.1913617 166.846352,33.6133191 C167.016635,34.0368511 167.149425,34.5060426 167.243159,35.0224681 C167.338455,35.5388936 167.394695,35.9498298 167.416567,36.2552766 C167.44,36.5607234 167.450936,36.8740426 167.450936,37.1968085 L167.450936,37.9793191 Z" id="Fill-35" fill="#445531"></path>
                <path d="M186.900721,47.6607234 L182.304635,47.6607234 L182.253082,47.2938723 C182.221837,47.0498298 182.204652,46.8057872 182.204652,46.5601702 C182.204652,45.6721702 182.215588,44.2031915 182.239021,42.153234 C182.25933,40.1048511 182.270266,38.6295745 182.270266,37.7289787 C182.2937,36.0962553 182.154661,34.9169787 181.856275,34.188 C181.559451,33.4605957 181.018918,33.0968936 180.23624,33.0968936 C179.355142,33.0968936 178.602146,33.2480426 177.980378,33.5471915 C177.358609,33.8479149 176.764961,34.2525532 176.202558,34.7642553 C176.202558,40.1741277 176.236927,43.5718298 176.302541,44.9620851 C176.390026,46.1728511 176.48376,47.0718723 176.583742,47.6607234 L171.837682,47.6607234 L171.872052,46.6105532 L172.003279,36.0301277 C172.014215,35.1531489 171.929854,34.4052766 171.747073,33.7880851 C171.565854,33.1724681 171.367451,32.7442128 171.151863,32.5064681 C170.936275,32.2671489 170.736309,32.1097021 170.548841,32.0309787 L170.283262,31.8971489 L170.283262,31.2815319 C171.573665,30.4817021 172.792206,30.0817872 173.937322,30.0817872 C174.599708,30.0817872 175.129305,30.2738723 175.526112,30.6564681 C175.922918,31.0390638 176.158815,31.497234 176.236927,32.0309787 L176.202558,32.980383 C176.599365,32.5804681 176.966489,32.2340851 177.302369,31.9396596 C177.638249,31.645234 178.055365,31.325617 178.550592,30.9808085 C179.047382,30.6375745 179.576979,30.3730638 180.13782,30.1904255 C180.700223,30.0062128 181.272,29.9148936 181.856275,29.9148936 C183.234163,29.9148936 184.355845,30.3478723 185.222884,31.2154043 C186.086798,32.0813617 186.536721,33.1472766 186.569528,34.4131489 C186.525785,36.8126383 186.508601,39.1711915 186.519536,41.487234 C186.530472,43.8032766 186.658575,45.8611064 186.900721,47.6607234" id="Fill-37" fill="#445531"></path>
                <path d="M191.749888,25.9991915 C191.749888,25.3331915 191.979536,24.7695319 192.443519,24.3082128 C192.90594,23.8468936 193.463657,23.6170213 194.113545,23.6170213 C194.730627,23.6170213 195.263348,23.8468936 195.708584,24.3082128 C196.155382,24.7695319 196.378781,25.3331915 196.378781,25.9991915 C196.378781,26.6321277 196.155382,27.1721702 195.708584,27.6161702 C195.263348,28.0601702 194.730627,28.2821702 194.113545,28.2821702 C193.463657,28.2821702 192.90594,28.0601702 192.443519,27.6161702 C191.979536,27.1721702 191.749888,26.6321277 191.749888,25.9991915 Z M196.528755,40.5126383 C196.528755,43.6899149 196.649047,46.1665532 196.891193,47.9441277 L192.146695,47.9441277 L192.327914,36.3135319 C192.327914,35.6034468 192.266987,34.9720851 192.146695,34.4225957 C192.024841,33.8715319 191.887365,33.4637447 191.732704,33.1976596 C191.578043,32.9315745 191.40776,32.7127234 191.220292,32.5395319 C191.032824,32.3663404 190.889099,32.264 190.790678,32.2309362 C190.690695,32.1978723 190.625082,32.1805532 190.592275,32.1805532 L190.592275,31.5649362 C191.881116,30.7651064 193.098094,30.3651915 194.246335,30.3651915 C195.877305,30.3651915 196.69279,31.4484255 196.69279,33.6133191 C196.69279,33.9471064 196.66467,34.510766 196.609991,35.3058723 C196.553751,36.0994043 196.528755,36.7197447 196.528755,37.1637447 L196.528755,40.5126383 Z" id="Fill-39" fill="#445531"></path>
                <path d="M209.712429,47.4938298 L209.067227,46.1602553 L209.100034,46.1933191 C208.681356,45.560383 208.172069,44.7668511 207.570609,43.8111489 C206.96915,42.8554468 206.477047,42.0335745 206.092738,41.3455319 C206.034936,41.4226809 205.945888,41.5895745 205.819348,41.8446383 C205.692807,42.1012766 205.600635,42.2681702 205.545957,42.3437447 C205.081974,42.9562128 204.653923,43.5230213 204.257116,44.0441702 C203.860309,44.5668936 203.46194,45.1352766 203.065133,45.7524681 C202.668326,46.3696596 202.343382,46.9490638 202.0903,47.4938298 L198.403433,47.4938298 L204.900755,39.5128511 L202.668326,36.1293191 C202.480858,35.8301702 202.202781,35.3625532 201.834094,34.7311915 C201.465408,34.0966809 201.17327,33.6164681 200.957682,33.2889787 C200.743657,32.9614894 200.453082,32.6277021 200.090644,32.2891915 C199.725082,31.9506809 199.345459,31.7302553 198.948652,31.6310638 L198.948652,31.0138723 C199.257974,30.7918723 199.517305,30.6139574 199.725082,30.4817021 C199.934421,30.3478723 200.224996,30.2203404 200.593682,30.0975319 C200.962369,29.9762979 201.329494,29.9148936 201.693494,29.9148936 C202.234026,29.9148936 202.688635,29.9668511 203.057322,30.0739149 C203.427571,30.1778298 203.732206,30.3541702 203.974352,30.5982128 C204.216498,30.8422553 204.405528,31.0752766 204.536755,31.2972766 C204.669545,31.5192766 204.841391,31.8373191 205.05073,32.2466809 C205.258506,32.6591915 205.447536,32.9961277 205.611571,33.2637872 L207.165991,35.7467234 L207.545614,36.6126809 L207.726833,36.2788936 C207.850249,36.0568936 207.970541,35.8805532 208.092395,35.7467234 L209.645253,33.9140426 C210.120172,33.3031489 210.356069,32.7804255 210.356069,32.3474468 C210.356069,32.0467234 210.229528,31.8089787 209.976446,31.6310638 L209.976446,31.0138723 C210.296704,30.7147234 210.718506,30.4565106 211.241854,30.239234 C211.763639,30.0235319 212.258867,29.9148936 212.721288,29.9148936 C213.12903,29.9148936 213.428979,30.0345532 213.622695,30.2722979 C213.81485,30.511617 213.911708,30.8139149 213.911708,31.180766 C213.911708,31.5696596 213.866403,31.9160426 213.780481,32.2230638 C213.691433,32.5285106 213.533648,32.8622979 213.308687,33.2228511 C213.082163,33.5834043 212.775966,33.9785957 212.390094,34.4052766 C212.004223,34.8319574 211.513682,35.3609787 210.918472,35.987617 C210.324824,36.6158298 209.60776,37.346383 208.768841,38.1792766 C209.24376,38.924 209.753047,39.7206809 210.299828,40.5708936 C210.845047,41.4211064 211.36527,42.2256596 211.86206,42.9861277 C212.357288,43.7481702 212.885322,44.5275319 213.449288,45.3273617 C214.010129,46.1271915 214.539725,46.8498723 215.034953,47.4938298 L209.712429,47.4938298 Z" id="Fill-41" fill="#445531"></path>
                <path d="M237.021803,48.7030213 C234.795622,48.7030213 232.886575,48.2228085 231.293099,47.2608085 C229.699622,46.3019574 228.507639,44.9809787 227.714026,43.3041702 C226.920412,41.6273617 226.523605,39.6718723 226.523605,37.4392766 C226.523605,33.8290213 227.584361,30.884766 229.705871,28.6080851 C231.828944,26.3314043 234.601906,25.1914894 238.031004,25.1914894 C239.629167,25.1914894 241.099227,25.4811915 242.445871,26.0590213 C243.789391,26.6368511 244.667365,27.3485106 245.073545,28.1908511 C245.073545,28.6254043 244.831399,29.2394468 244.345545,30.0329787 C243.861253,30.8265106 243.259794,31.3854468 242.544292,31.7082128 L241.89909,31.1902128 C241.89909,31.0012766 241.835039,30.7635319 241.71006,30.4738298 C241.581957,30.1857021 241.392927,29.872383 241.139845,29.5322979 C240.885202,29.1937872 240.593064,28.8804681 240.261871,28.5923404 C239.93224,28.3026383 239.533871,28.0617447 239.071451,27.8665106 C238.610592,27.6728511 238.129425,27.575234 237.634197,27.575234 C236.618747,27.575234 235.718901,27.8066809 234.929974,28.2664255 C234.142609,28.7277447 233.511468,29.3575319 233.038112,30.1573617 C232.563193,30.9571915 232.205442,31.8483404 231.963296,32.832383 C231.719588,33.8148511 231.599296,34.8618723 231.599296,35.9734468 C231.599296,37.3385106 231.743021,38.6169787 232.030472,39.8057021 C232.314798,40.9944255 232.738163,42.0493191 233.294318,42.970383 C233.850472,43.8930213 234.575348,44.6188511 235.468944,45.1462979 C236.360979,45.6737447 237.374867,45.9366809 238.510609,45.9366809 C239.635416,45.9366809 240.84927,45.6060426 242.155296,44.944766 C243.461322,44.2850638 244.401785,43.3986383 244.975124,42.2870638 C245.382867,43.4773617 245.250077,44.5763404 244.578318,45.5871489 C243.904996,46.5979574 242.889545,47.3757447 241.527279,47.9189362 C240.166575,48.4637021 238.66527,48.7250638 237.021803,48.7030213" id="Fill-43" fill="#445531"></path>
                <path d="M252.751914,33.2905532 C253.125288,32.8906383 253.487725,32.5379574 253.834541,32.2325106 C254.181356,31.9270638 254.601597,31.6074468 255.090575,31.275234 C255.582678,30.9414468 256.107588,30.683234 256.669991,30.5005957 C257.232395,30.316383 257.810421,30.2250638 258.405631,30.2250638 C259.783519,30.2250638 260.913013,30.6611915 261.795674,31.5318723 C262.678335,32.4057021 263.118884,33.4684681 263.118884,34.7233191 C263.118884,35.0460851 263.112635,36.1482128 263.1017,38.0312766 C263.090764,39.9143404 263.084515,40.9613617 263.084515,41.1723404 C263.084515,43.7938298 263.204807,46.0594894 263.448515,47.9708936 L258.852429,47.9708936 L258.802438,47.6040426 C258.769631,47.36 258.754009,47.114383 258.754009,46.8703404 C258.754009,45.9823404 258.764944,44.5117872 258.785253,42.4634043 C258.808687,40.4134468 258.819622,38.9381702 258.819622,38.0391489 C258.819622,36.384383 258.679021,35.1988085 258.39782,34.4824255 C258.116618,33.7660426 257.57921,33.4070638 256.785597,33.4070638 C255.904498,33.4070638 255.151502,33.5566383 254.529734,33.8573617 C253.906403,34.1565106 253.312755,34.5627234 252.751914,35.0728511 L252.751914,36.8063404 L252.751914,41.1377021 C252.751914,42.3831064 252.780034,43.5907234 252.834712,44.7621277 C252.889391,45.9351064 252.987811,47.0041702 253.131536,47.9708936 L248.387039,47.9708936 C248.463588,44.2488511 248.504206,39.9190638 248.510455,34.9815319 C248.516704,30.044 248.530764,27.5705106 248.552635,27.5579149 C248.552635,26.4368936 248.372979,25.5394468 248.015227,24.8671489 C247.655914,24.1964255 247.262232,23.7996596 246.832618,23.6768511 L246.832618,23.0596596 L247.296601,22.8093191 C247.615296,22.6314043 248.062094,22.4597872 248.633871,22.2928936 C249.20721,22.1275745 249.758678,22.0425532 250.288275,22.0425532 C251.347468,22.0425532 252.073906,22.321234 252.470712,22.8770213 C252.867519,23.4328085 253.065923,24.2877447 253.065923,25.4434043 C253.065923,26.0086383 253.019056,27.1642979 252.925322,28.9088085 C252.831588,30.6517447 252.773785,32.1128511 252.751914,33.2905532" id="Fill-45" fill="#445531"></path>
                <path d="M273.30776,47.6607234 L268.694489,47.6607234 C268.694489,47.2041277 268.721047,45.5965957 268.777288,42.8365532 C268.833528,40.0765106 268.860086,37.8077021 268.860086,36.0301277 C268.860086,35.2302979 268.796034,34.5469787 268.669494,33.9801702 C268.542953,33.4149362 268.37267,32.9914043 268.157082,32.7142979 C267.941494,32.4371915 267.760275,32.2419574 267.611863,32.1317447 C267.463451,32.0199574 267.305665,31.9428085 267.141631,31.8971489 L267.141631,31.2815319 C268.375794,30.4817021 269.581837,30.0817872 270.761322,30.0817872 C272.182953,30.0817872 272.893768,30.7651064 272.893768,32.1317447 C272.893768,32.1648085 272.86721,32.3836596 272.812532,32.7898723 C272.75473,33.1945106 272.717236,33.5078298 272.695365,33.7298298 C273.024996,32.9315745 273.649888,32.0955319 274.563794,31.2232766 C275.479262,30.3510213 276.415039,29.9148936 277.375811,29.9148936 C278.322524,29.9148936 279.023966,30.1510638 279.4817,30.6234043 C279.939433,31.0957447 280.169082,31.6420851 280.169082,32.264 C280.169082,32.8748936 279.964429,33.397617 279.556687,33.8305957 C279.148944,34.2635745 278.619348,34.4808511 277.969459,34.4808511 C277.936652,34.4808511 277.87885,34.4745532 277.796052,34.4635319 C277.713253,34.4525106 277.649202,34.4462128 277.605459,34.4462128 C277.430489,33.5471915 276.911828,33.0968936 276.052601,33.0968936 C275.512069,33.0968936 275.043399,33.2197021 274.646592,33.4637447 C274.249785,33.7077872 273.937339,34.0242553 273.712378,34.4131489 C273.485854,34.8020426 273.30776,35.2995745 273.17497,35.9057447 C273.04218,36.5103404 272.956258,37.0991915 272.918764,37.6707234 C272.88127,38.2438298 272.860961,38.9129787 272.860961,39.6797447 C272.860961,41.5234468 272.887519,43.0113191 272.94376,44.1449362 C272.998438,45.2769787 273.120292,46.4499574 273.30776,47.6607234" id="Fill-47" fill="#445531"></path>
                <path d="M282.35933,25.9991915 C282.35933,25.3331915 282.590541,24.7695319 283.052961,24.3082128 C283.516944,23.8468936 284.073099,23.6170213 284.724549,23.6170213 C285.340069,23.6170213 285.87279,23.8468936 286.318026,24.3082128 C286.764824,24.7695319 286.988223,25.3331915 286.988223,25.9991915 C286.988223,26.6321277 286.764824,27.1721702 286.318026,27.6161702 C285.87279,28.0601702 285.340069,28.2821702 284.724549,28.2821702 C284.073099,28.2821702 283.516944,28.0601702 283.052961,27.6161702 C282.590541,27.1721702 282.35933,26.6321277 282.35933,25.9991915 Z M287.138197,40.5126383 C287.138197,43.6899149 287.258489,46.1665532 287.500635,47.9441277 L282.756137,47.9441277 L282.937356,36.3135319 C282.937356,35.6034468 282.876429,34.9720851 282.756137,34.4225957 C282.634283,33.8715319 282.496807,33.4637447 282.342146,33.1976596 C282.189047,32.9315745 282.017202,32.7127234 281.829734,32.5395319 C281.642266,32.3663404 281.498541,32.264 281.40012,32.2309362 C281.300137,32.1978723 281.234524,32.1805532 281.201717,32.1805532 L281.201717,31.5649362 C282.49212,30.7651064 283.709099,30.3651915 284.855777,30.3651915 C286.486747,30.3651915 287.302232,31.4484255 287.302232,33.6133191 C287.302232,33.9471064 287.274112,34.510766 287.219433,35.3058723 C287.164755,36.0994043 287.138197,36.7197447 287.138197,37.1637447 L287.138197,40.5126383 Z" id="Fill-49" fill="#445531"></path>
                <path d="M302.504309,35.0980426 L301.891914,34.9642128 C301.715382,34.4210213 301.465425,33.942383 301.140481,33.5314468 C300.815536,33.1205106 300.459348,32.808766 300.073476,32.5993617 C299.687605,32.3868085 299.311107,32.2340851 298.942421,32.1411915 C298.570609,32.0467234 298.211296,31.9979149 297.858232,31.9979149 C297.175536,31.9979149 296.556893,32.1537872 296.006987,32.4655319 C295.455519,32.7757021 295.180567,33.2811064 295.180567,33.9817447 C295.180567,34.3470213 295.347725,34.7012766 295.685167,35.0397872 C296.021047,35.3782979 296.461597,35.6868936 297.006815,35.964 C297.552034,36.2426809 298.150369,36.5276596 298.800258,36.8220851 C299.451708,37.1165106 300.104721,37.4408511 300.760858,37.7966809 C301.415433,38.1525106 302.016893,38.5382553 302.562112,38.9554894 C303.10733,39.3711489 303.54788,39.8797021 303.885322,40.4795745 C304.221202,41.0794468 304.388361,41.7344255 304.388361,42.4460851 C304.388361,44.2236596 303.766592,45.6123404 302.521494,46.6105532 C301.274833,47.6119149 299.667296,48.1110213 297.692635,48.1110213 C296.171021,48.1110213 294.875931,47.703234 293.808927,46.8860851 C292.738798,46.0705106 292.204515,45.1352766 292.204515,44.0788085 C292.204515,43.5686809 292.324807,43.1231064 292.568515,42.745234 C292.643502,43.5340426 293.224652,44.2488511 294.304155,44.8865106 C295.383657,45.5257447 296.480343,45.8453617 297.592652,45.8453617 C298.475313,45.8453617 299.229871,45.681617 299.859451,45.3541277 C300.487468,45.0266383 300.801476,44.5117872 300.801476,43.8127234 C300.801476,43.4128085 300.585888,43.0239149 300.156275,42.6460426 C299.726661,42.2681702 299.192378,41.934383 298.553425,41.6462553 C297.914472,41.3581277 297.219279,41.0133191 296.469408,40.6134043 C295.719536,40.2134894 295.025906,39.7962553 294.386953,39.3632766 C293.748,38.9302979 293.213717,38.3666383 292.782541,37.6722979 C292.352927,36.9779574 292.137339,36.2143404 292.137339,35.3814468 C292.137339,33.7156596 292.724738,32.3868085 293.897974,31.3980426 C295.072773,30.4092766 296.628755,29.9148936 298.569047,29.9148936 C300.365614,29.9148936 301.968464,30.3494468 303.380721,31.2154043 C303.468206,31.5255745 303.51976,31.8845532 303.536944,32.290766 C303.554129,32.6954043 303.479142,33.1677447 303.315107,33.7062128 C303.149511,34.2446809 302.877682,34.7091489 302.504309,35.0980426" id="Fill-51" fill="#445531"></path>
                <path d="M312.596326,26.7659574 L312.216704,29.5984255 L315.372412,29.5984255 C315.703605,29.5984255 316.059794,29.5574894 316.439416,29.4740426 C316.820601,29.3905957 317.059622,29.2488936 317.159605,29.0489362 C317.225219,29.2819574 317.258026,29.5543404 317.258026,29.8660851 C317.258026,31.2311489 316.28788,31.9160426 314.34915,31.9160426 C314.172618,31.9160426 313.805494,31.8987234 313.249339,31.8656596 C312.693185,31.8310213 312.315124,31.8152766 312.116721,31.8152766 L312.116721,39.4955319 C312.105785,39.8198723 312.105785,40.1568085 312.116721,40.5126383 C312.127657,40.8684681 312.141717,41.2211489 312.158901,41.5706809 C312.172961,41.9202128 312.230764,42.254 312.322936,42.5704681 C312.41667,42.8869362 312.535399,43.165617 312.679124,43.4033617 C312.82285,43.6426809 313.027502,43.834766 313.297768,43.9780426 C313.568034,44.1228936 313.885167,44.1953191 314.25073,44.1953191 C314.931863,44.1953191 315.642678,44.0819574 316.381614,43.8536596 C317.120549,43.6253617 317.58297,43.3230638 317.772,42.9451915 C318.057888,43.6568511 317.996961,44.352766 317.589219,45.0360851 C317.181476,45.7194043 316.544086,46.2641702 315.680172,46.670383 C314.814695,47.0750213 313.885167,47.2781277 312.89315,47.2781277 C311.857391,47.2781277 311.001288,47.1553191 310.323279,46.9112766 C309.643708,46.667234 309.129734,46.2893617 308.778232,45.7776596 C308.423605,45.2675319 308.181459,44.6928511 308.050232,44.053617 C307.917442,43.414383 307.851828,42.624 307.851828,41.6793191 C307.851828,40.8354043 307.906506,39.5805532 308.015863,37.9131915 C308.126781,36.2474043 308.181459,35.0319149 308.181459,34.2651489 C308.181459,32.953617 308.081476,32.1711064 307.883073,31.9160426 C307.431588,31.3382128 306.869185,30.9272766 306.197425,30.6816596 L306.363021,29.6661277 C306.461442,29.6661277 306.594232,29.6440851 306.759828,29.5984255 C306.925425,29.5543404 307.181631,29.452 307.528446,29.2914043 C307.876824,29.129234 308.262695,28.8316596 308.68606,28.3986809 C309.110987,27.9657021 309.509356,27.4225106 309.885854,26.7659574 L312.596326,26.7659574 Z" id="Fill-53" fill="#445531"></path>
                <path d="M319.852893,25.9991915 C319.852893,25.3331915 320.084103,24.7695319 320.546524,24.3082128 C321.008944,23.8468936 321.566661,23.6170213 322.216549,23.6170213 C322.833631,23.6170213 323.366352,23.8468936 323.811588,24.3082128 C324.258386,24.7695319 324.481785,25.3331915 324.481785,25.9991915 C324.481785,26.6321277 324.258386,27.1721702 323.811588,27.6161702 C323.366352,28.0601702 322.833631,28.2821702 322.216549,28.2821702 C321.566661,28.2821702 321.008944,28.0601702 320.546524,27.6161702 C320.084103,27.1721702 319.852893,26.6321277 319.852893,25.9991915 Z M324.63176,40.5126383 C324.63176,43.6899149 324.752052,46.1665532 324.994197,47.9441277 L320.2497,47.9441277 L320.430918,36.3135319 C320.430918,35.6034468 320.369991,34.9720851 320.2497,34.4225957 C320.127845,33.8715319 319.990369,33.4637447 319.835708,33.1976596 C319.682609,32.9315745 319.510764,32.7127234 319.323296,32.5395319 C319.135828,32.3663404 318.992103,32.264 318.893682,32.2309362 C318.7937,32.1978723 318.728086,32.1805532 318.695279,32.1805532 L318.695279,31.5649362 C319.98412,30.7651064 321.202661,30.3651915 322.349339,30.3651915 C323.980309,30.3651915 324.795794,31.4484255 324.795794,33.6133191 C324.795794,33.9471064 324.767674,34.510766 324.712996,35.3058723 C324.658318,36.0994043 324.63176,36.7197447 324.63176,37.1637447 L324.63176,40.5126383 Z" id="Fill-55" fill="#445531"></path>
                <path d="M338.840258,39.812 C338.454386,39.835617 338.079451,39.8655319 337.715451,39.9048936 C337.353013,39.9426809 336.909339,40.0324255 336.385991,40.1709787 C335.861082,40.3095319 335.412721,40.4842979 335.036223,40.6952766 C334.66285,40.9062553 334.339468,41.2038298 334.069202,41.5864255 C333.798936,41.9705957 333.664584,42.4114468 333.664584,42.9121277 C333.664584,43.6678723 333.897356,44.2771915 334.359777,44.7448085 C334.82376,45.2108511 335.358043,45.4438723 335.962627,45.4438723 C337.02182,45.4438723 338.002901,45.1116596 338.905871,44.4440851 C338.862129,43.4222553 338.840258,41.8777021 338.840258,39.812 M343.519142,45.2108511 C343.905013,45.9555745 344.692378,46.3271489 345.882798,46.3271489 L345.882798,47.0765957 C345.46412,47.3442553 344.879845,47.5835745 344.131536,47.7929787 C343.380103,48.0039574 342.703657,48.1110213 342.097511,48.1110213 C341.369511,48.1110213 340.733682,47.8323404 340.186901,47.2765532 C339.643245,46.7223404 339.329236,46.1665532 339.254249,45.610766 C338.857442,46.3995745 338.224738,47.013617 337.360824,47.4528936 C336.495348,47.8905957 335.637682,48.1110213 334.789391,48.1110213 C333.114678,48.1110213 331.836773,47.6622979 330.954112,46.768 C330.073013,45.8752766 329.630901,44.817234 329.630901,43.5938723 C329.630901,42.5169362 329.963657,41.5738298 330.63073,40.7629787 C331.299365,39.9505532 332.166403,39.3396596 333.23497,38.9287234 C334.305099,38.5177872 335.484584,38.3131064 336.773425,38.3131064 C337.467056,38.3131064 338.157562,38.4012766 338.840258,38.5791915 C338.884,37.6234894 338.905871,36.9197021 338.905871,36.4631064 C338.905871,35.7860851 338.874627,35.1988085 338.815262,34.7044255 C338.754335,34.211617 338.641854,33.7424255 338.47782,33.2968511 C338.310661,32.8528511 338.060704,32.5143404 337.723262,32.2813191 C337.387382,32.0467234 336.971828,31.9317872 336.475039,31.9317872 C335.748601,31.9317872 335.183073,32.1915745 334.780017,32.7142979 C334.380086,33.2370213 334.253545,33.8746809 334.409768,34.6304255 C333.814558,35.1074894 333.180292,35.3468085 332.50697,35.3468085 C331.968,35.3468085 331.508704,35.1799149 331.127519,34.8477021 C330.746335,34.5139149 330.557305,34.0746383 330.557305,33.5298723 C330.557305,32.4749787 331.157202,31.6090213 332.36012,30.9304255 C333.559914,30.2534043 334.933116,29.9148936 336.475039,29.9148936 C338.559056,29.9148936 340.196275,30.3699149 341.386695,31.2815319 C342.577116,32.1915745 343.170764,33.5141277 343.170764,35.247617 C343.170764,35.5798298 343.161391,36.2584255 343.139519,37.2802553 C343.116086,38.3020851 343.10515,39.3065957 343.10515,40.2953617 C343.10515,42.994 343.242627,44.6345957 343.519142,45.2108511" id="Fill-57" fill="#445531"></path>
                <path d="M363.614285,48.2919277 L359.018199,48.2919277 L358.966645,47.9250766 C358.935401,47.681034 358.918216,47.4369915 358.918216,47.1913745 C358.918216,46.3033745 358.929152,44.8343957 358.952585,42.7844383 C358.972894,40.7360553 358.98383,39.2607787 358.98383,38.360183 C359.007264,36.7274596 358.868225,35.548183 358.569839,34.8192043 C358.273015,34.0918 357.732482,33.7280979 356.949804,33.7280979 C356.068706,33.7280979 355.31571,33.8792468 354.693942,34.1783957 C354.072173,34.4791191 353.480088,34.8837574 352.916122,35.3954596 C352.916122,40.8053319 352.950491,44.203034 353.016105,45.5932894 C353.10359,46.8040553 353.197324,47.7030766 353.297306,48.2919277 L348.551246,48.2919277 L348.585615,47.2417574 L348.716843,36.6613319 C348.729341,35.7843532 348.643418,35.0364809 348.462199,34.4192894 C348.279418,33.8036723 348.081015,33.375417 347.865427,33.1376723 C347.651401,32.8983532 347.449873,32.7409064 347.262405,32.662183 L346.996826,32.5283532 L346.996826,31.9127362 C348.287229,31.1129064 349.50577,30.7129915 350.650886,30.7129915 C351.313272,30.7129915 351.842869,30.9050766 352.239676,31.2876723 C352.636482,31.6702681 352.872379,32.1284383 352.950491,32.662183 L352.916122,33.6115872 C353.312929,33.2116723 353.680053,32.8652894 354.015933,32.5708638 C354.351813,32.2764383 354.768929,31.9568213 355.264156,31.6120128 C355.760946,31.2687787 356.290542,31.0042681 356.851384,30.8216298 C357.413787,30.637417 357.985564,30.5460979 358.569839,30.5460979 C359.947727,30.5460979 361.069409,30.9790766 361.936448,31.8466085 C362.800362,32.712566 363.250285,33.7784809 363.283092,35.0443532 C363.239349,37.4438426 363.222165,39.8023957 363.2331,42.1184383 C363.244036,44.4344809 363.372139,46.4923106 363.614285,48.2919277" id="Fill-59" fill="#445531"></path>
                <path d="M103.286953,64.5374468 C103.286953,65.3829362 102.660498,66.0442128 101.859073,66.0442128 L100.179674,66.0442128 L100.179674,63.1377447 L101.859073,63.1377447 C102.672996,63.1377447 103.286953,63.7391915 103.286953,64.5374468 M101.885631,61.4042553 L98.8689614,61.4042553 C98.6221288,61.4042553 98.4206009,61.6073617 98.4206009,61.8577021 L98.4206009,70.6841702 C98.4206009,70.9329362 98.6221288,71.1360426 98.8689614,71.1360426 L99.7297511,71.1360426 C99.9734592,71.1360426 100.179674,70.9297872 100.179674,70.6841702 L100.179674,67.7509362 L101.898129,67.7509362 C103.63533,67.7509362 105.046026,66.3150213 105.046026,64.5500426 C105.046026,62.8165532 103.629082,61.4042553 101.885631,61.4042553" id="Fill-62" fill="#66992C"></path>
                <path d="M113.150884,64.4839149 C113.150884,65.2711489 112.502558,65.9371489 111.735502,65.9371489 L109.579622,65.9371489 L109.579622,63.098383 L111.735502,63.098383 C112.502558,63.098383 113.150884,63.7328936 113.150884,64.4839149 M114.924017,64.4571489 C114.924017,62.7740426 113.541442,61.4042553 111.841734,61.4042553 L108.243914,61.4042553 C107.995519,61.4042553 107.793991,61.6073617 107.793991,61.8577021 L107.793991,70.6841702 C107.793991,70.9329362 107.995519,71.1360426 108.243914,71.1360426 L109.103142,71.1360426 C109.34685,71.1360426 109.553064,70.9297872 109.553064,70.6841702 L109.553064,67.4832766 L111.230901,67.4832766 L112.907176,70.8542128 C113.00091,71.0415745 113.154009,71.1360426 113.363348,71.1360426 L114.355365,71.1360426 C114.525648,71.1360426 114.670936,71.0573191 114.750609,70.9203404 C114.833408,70.7817872 114.833408,70.6038723 114.753734,70.4542979 L113.044652,67.2597021 C114.210077,66.7086383 114.924017,65.6521702 114.924017,64.4571489" id="Fill-64" fill="#66992C"></path>
                <path d="M124.470815,61.4042553 L119.179536,61.4042553 C118.931142,61.4042553 118.729614,61.6073617 118.729614,61.8577021 L118.729614,70.6841702 C118.729614,70.9329362 118.931142,71.1360426 119.179536,71.1360426 L124.470815,71.1360426 C124.71921,71.1360426 124.920738,70.9329362 124.920738,70.6841702 L124.920738,69.9504681 C124.920738,69.7001277 124.71921,69.4970213 124.470815,69.4970213 L120.488687,69.4970213 L120.488687,67.0298298 L123.822489,67.0298298 C124.069322,67.0298298 124.272412,66.8267234 124.272412,66.5779574 L124.272412,65.8316596 C124.272412,65.5844681 124.066197,65.3766383 123.822489,65.3766383 L120.488687,65.3766383 L120.488687,63.0574468 L124.470815,63.0574468 C124.71921,63.0574468 124.920738,62.8543404 124.920738,62.604 L124.920738,61.8577021 C124.920738,61.6073617 124.71921,61.4042553 124.470815,61.4042553" id="Fill-66" fill="#66992C"></path>
                <path d="M134.531588,64.5374468 C134.531588,65.3829362 133.905133,66.0442128 133.103708,66.0442128 L131.424309,66.0442128 L131.424309,63.1377447 L133.103708,63.1377447 C133.917631,63.1377447 134.531588,63.7391915 134.531588,64.5374468 M133.131828,61.4042553 L130.113597,61.4042553 C129.866764,61.4042553 129.665236,61.6073617 129.665236,61.8577021 L129.665236,70.6841702 C129.665236,70.9329362 129.866764,71.1360426 130.113597,71.1360426 L130.974386,71.1360426 C131.218094,71.1360426 131.424309,70.9297872 131.424309,70.6841702 L131.424309,67.7509362 L133.142764,67.7509362 C134.879966,67.7509362 136.292223,66.3150213 136.292223,64.5500426 C136.292223,62.8165532 134.873717,61.4042553 133.131828,61.4042553" id="Fill-68" fill="#66992C"></path>
                <path d="M143.386691,67.6974043 L140.690279,67.6974043 L142.033798,64.6602553 L143.386691,67.6974043 Z M142.521214,61.6624681 C142.444665,61.5081702 142.25251,61.4042553 142.118158,61.4042553 L141.986931,61.4042553 C141.855703,61.4042553 141.660425,61.5081702 141.582313,61.668766 L137.52051,70.6416596 C137.454897,70.7849362 137.462708,70.9455319 137.542382,71.0714894 C137.623618,71.1990213 137.762656,71.2714468 137.925128,71.2714468 L138.75936,71.2714468 C139.017128,71.2714468 139.182725,71.0982553 139.245214,70.9518298 L139.99821,69.2451064 L144.069386,69.2451064 L144.834879,70.9518298 C144.923927,71.1580851 145.097334,71.2714468 145.319171,71.2714468 L146.153403,71.2714468 C146.317437,71.2714468 146.456476,71.1990213 146.537712,71.0714894 C146.615824,70.9455319 146.623635,70.7849362 146.558021,70.6416596 L142.521214,61.6624681 Z" id="Fill-70" fill="#66992C"></path>
                <path d="M155.331142,64.4839149 C155.331142,65.2711489 154.684378,65.9371489 153.917322,65.9371489 L151.75988,65.9371489 L151.75988,63.098383 L153.917322,63.098383 C154.684378,63.098383 155.331142,63.7328936 155.331142,64.4839149 M157.104275,64.4571489 C157.104275,62.7740426 155.7217,61.4042553 154.021991,61.4042553 L150.424172,61.4042553 C150.175777,61.4042553 149.974249,61.6073617 149.974249,61.8577021 L149.974249,70.6841702 C149.974249,70.9329362 150.175777,71.1360426 150.424172,71.1360426 L151.283399,71.1360426 C151.527107,71.1360426 151.733322,70.9297872 151.733322,70.6841702 L151.733322,67.4832766 L153.411159,67.4832766 L155.088996,70.8542128 C155.181167,71.0415745 155.335828,71.1360426 155.543605,71.1360426 L156.535622,71.1360426 C156.707468,71.1360426 156.851193,71.0573191 156.932429,70.9203404 C157.013665,70.7817872 157.015227,70.6038723 156.933991,70.4542979 L155.226472,67.2597021 C156.390335,66.7086383 157.104275,65.6521702 157.104275,64.4571489" id="Fill-72" fill="#66992C"></path>
                <path d="M166.821729,67.6974043 L164.125317,67.6974043 L165.468837,64.6602553 L166.821729,67.6974043 Z M165.954691,61.6624681 C165.88439,61.5223404 165.701609,61.4042553 165.553197,61.4042553 L165.42197,61.4042553 C165.271995,61.4042553 165.089214,61.5223404 165.015789,61.668766 L160.953987,70.6400851 C160.888373,70.7849362 160.896184,70.9455319 160.975858,71.0714894 C161.057094,71.1990213 161.196133,71.2714468 161.360167,71.2714468 L162.192837,71.2714468 C162.434982,71.2714468 162.613077,71.1092766 162.680253,70.9518298 L163.433249,69.2451064 L167.502862,69.2451064 L168.269918,70.9518298 C168.358965,71.1580851 168.532373,71.2714468 168.75421,71.2714468 L169.588442,71.2714468 C169.750914,71.2714468 169.891515,71.1990213 169.972751,71.0714894 C170.050862,70.9455319 170.058673,70.7849362 169.99306,70.6416596 L165.954691,61.6624681 Z" id="Fill-74" fill="#66992C"></path>
                <path d="M177.983502,61.4042553 L172.295416,61.4042553 C172.047021,61.4042553 171.845494,61.6073617 171.845494,61.8577021 L171.845494,62.604 C171.845494,62.8543404 172.047021,63.0574468 172.295416,63.0574468 L174.252893,63.0574468 L174.252893,70.6841702 C174.252893,70.9297872 174.459107,71.1360426 174.702815,71.1360426 L175.576103,71.1360426 C175.819811,71.1360426 176.026026,70.9297872 176.026026,70.6841702 L176.026026,63.0574468 L177.983502,63.0574468 C178.231897,63.0574468 178.433425,62.8543404 178.433425,62.604 L178.433425,61.8577021 C178.433425,61.6073617 178.231897,61.4042553 177.983502,61.4042553" id="Fill-76" fill="#66992C"></path>
                <path d="M186.166472,69.7111489 C184.416773,69.7111489 182.940464,68.2028085 182.940464,66.4173617 C182.940464,64.6177447 184.416773,63.098383 186.166472,63.098383 C187.923983,63.098383 189.406541,64.6177447 189.406541,66.4173617 C189.406541,68.2342979 187.953665,69.7111489 186.166472,69.7111489 M186.166472,61.4042553 C183.438815,61.4042553 181.218884,63.6525957 181.218884,66.4173617 C181.218884,69.213617 183.393511,71.4037021 186.166472,71.4037021 C188.948807,71.4037021 191.12812,69.213617 191.12812,66.4173617 C191.12812,63.6525957 188.90194,61.4042553 186.166472,61.4042553" id="Fill-78" fill="#66992C"></path>
                <path d="M200.635863,64.4839149 C200.635863,65.2711489 199.989099,65.9371489 199.220481,65.9371489 L197.064601,65.9371489 L197.064601,63.098383 L199.220481,63.098383 C199.989099,63.098383 200.635863,63.7328936 200.635863,64.4839149 M202.408996,64.4571489 C202.408996,62.7740426 201.026421,61.4042553 199.326712,61.4042553 L195.728893,61.4042553 C195.480498,61.4042553 195.27897,61.6073617 195.27897,61.8577021 L195.27897,70.6841702 C195.27897,70.9329362 195.480498,71.1360426 195.728893,71.1360426 L196.58812,71.1360426 C196.831828,71.1360426 197.038043,70.9297872 197.038043,70.6841702 L197.038043,67.4832766 L198.71588,67.4832766 L200.393717,70.8542128 C200.487451,71.0415745 200.640549,71.1360426 200.848326,71.1360426 L201.840343,71.1360426 C202.010627,71.1360426 202.155914,71.0573191 202.235588,70.9203404 C202.318386,70.7817872 202.318386,70.6038723 202.238712,70.4542979 L200.531193,67.2597021 C201.695056,66.7086383 202.408996,65.6521702 202.408996,64.4571489" id="Fill-80" fill="#66992C"></path>
                <path d="M212.284934,61.4042553 L211.292917,61.4042553 C211.130445,61.4042553 210.994531,61.5081702 210.919543,61.6073617 L208.687114,64.7704681 L206.453123,61.6042128 C206.328144,61.4388936 206.182857,61.4042553 206.081312,61.4042553 L205.101792,61.4042553 C204.933071,61.4042553 204.784659,61.4892766 204.704985,61.6325532 C204.628436,61.7742553 204.634685,61.9521702 204.728419,62.1048936 L207.787269,66.5071064 L207.787269,70.6841702 C207.787269,70.9329362 207.988797,71.1360426 208.237191,71.1360426 L209.110479,71.1360426 C209.354187,71.1360426 209.560402,70.9297872 209.560402,70.6841702 L209.560402,66.4945106 L212.666118,62.0954468 C212.755166,61.9505957 212.759852,61.7726809 212.681741,61.6309787 C212.602067,61.4892766 212.453655,61.4042553 212.284934,61.4042553" id="Fill-82" fill="#66992C"></path>
                <path d="M225.210014,65.5120426 C224.089894,65.0507234 223.654031,64.6303404 223.654031,64.0178723 C223.654031,63.6714894 223.924297,63.0180851 224.950683,63.0180851 C225.645877,63.0180851 226.111422,63.317234 226.62852,63.6525957 C226.751937,63.7313191 226.886289,63.7596596 227.014392,63.7297447 C227.154992,63.6982553 227.278409,63.6006383 227.365894,63.4605106 L227.695525,62.9535319 C227.801756,62.7945106 227.800194,62.6449362 227.779885,62.5473191 C227.750203,62.4134894 227.667404,62.2922553 227.564297,62.2261277 C227.289344,62.0340426 226.289516,61.4042553 225.002237,61.4042553 C222.732314,61.4042553 221.909018,62.9991915 221.909018,64.0698298 C221.909018,65.7718298 223.122872,66.5228511 224.438271,67.0817872 C225.786477,67.6438723 226.31295,68.1114894 226.31295,68.7491489 C226.31295,69.3521702 225.766168,69.7898723 225.016297,69.7898723 C224.071147,69.7898723 223.633722,69.4245957 223.026014,68.9160426 C222.91822,68.8247234 222.783868,68.7916596 222.646392,68.8121277 C222.501104,68.8373191 222.366752,68.9317872 222.282392,69.068766 L221.938701,69.6151064 C221.701241,69.9851064 221.938701,70.1976596 222.051181,70.2952766 C222.24646,70.4810638 223.307216,71.4037021 225.030357,71.4037021 C226.823799,71.4037021 228.178254,70.2338723 228.178254,68.6830213 C228.178254,66.8739574 226.645705,66.0977447 225.210014,65.5120426" id="Fill-84" fill="#66992C"></path>
                <path d="M238.93085,68.796383 C238.768378,68.6594043 238.544979,68.6641277 238.36376,68.8042553 C237.802918,69.240383 237.154592,69.6434468 236.211004,69.6434468 C234.481614,69.6434468 233.075605,68.1839149 233.075605,66.3905957 C233.075605,64.5894043 234.475365,63.1235745 236.196944,63.1235745 C236.946815,63.1235745 237.752927,63.4400426 238.345013,63.959617 C238.47624,64.0918723 238.601219,64.107617 238.684017,64.1060426 C238.762129,64.1013191 238.874609,64.0698298 238.95897,63.9580426 L239.538558,63.3597447 C239.629167,63.2668511 239.679159,63.148766 239.674472,63.024383 C239.671348,62.9 239.613545,62.7819149 239.515124,62.6937447 C238.496549,61.8010213 237.467039,61.4042553 236.184446,61.4042553 C233.441167,61.4042553 231.2103,63.6525957 231.2103,66.4173617 C231.2103,69.166383 233.441167,71.4037021 236.184446,71.4037021 C237.473288,71.4037021 238.634026,70.9360851 239.538558,70.051234 C239.629167,69.9599149 239.680721,69.8260851 239.679159,69.6954043 C239.674472,69.5788936 239.626043,69.4734043 239.549494,69.4072766 L238.93085,68.796383 Z" id="Fill-86" fill="#66992C"></path>
                <path d="M251.249047,61.4042553 L250.374197,61.4042553 C250.127365,61.4042553 249.924275,61.6073617 249.924275,61.8577021 L249.924275,65.3766383 L245.481288,65.3766383 L245.481288,61.8577021 C245.481288,61.6073617 245.27976,61.4042553 245.031365,61.4042553 L244.158077,61.4042553 C243.914369,61.4042553 243.708155,61.6105106 243.708155,61.8577021 L243.708155,70.6841702 C243.708155,70.9297872 243.914369,71.1360426 244.158077,71.1360426 L245.031365,71.1360426 C245.27976,71.1360426 245.481288,70.9329362 245.481288,70.6841702 L245.481288,67.0298298 L249.924275,67.0298298 L249.924275,70.6841702 C249.924275,70.9329362 250.127365,71.1360426 250.374197,71.1360426 L251.249047,71.1360426 C251.491193,71.1360426 251.697408,70.9297872 251.697408,70.6841702 L251.697408,61.8577021 C251.697408,61.6105106 251.491193,61.4042553 251.249047,61.4042553" id="Fill-88" fill="#66992C"></path>
                <path d="M259.591365,69.7111489 C257.841665,69.7111489 256.365356,68.2028085 256.365356,66.4173617 C256.365356,64.6177447 257.841665,63.098383 259.591365,63.098383 C261.348876,63.098383 262.832996,64.6177447 262.832996,66.4173617 C262.832996,68.2342979 261.38012,69.7111489 259.591365,69.7111489 M259.591365,61.4042553 C256.863708,61.4042553 254.643777,63.6525957 254.643777,66.4173617 C254.643777,69.213617 256.818403,71.4037021 259.591365,71.4037021 C262.372137,71.4037021 264.553013,69.213617 264.553013,66.4173617 C264.553013,63.6525957 262.326833,61.4042553 259.591365,61.4042553" id="Fill-90" fill="#66992C"></path>
                <path d="M272.089219,69.7111489 C270.339519,69.7111489 268.861648,68.2028085 268.861648,66.4173617 C268.861648,64.6177447 270.339519,63.098383 272.089219,63.098383 C273.845167,63.098383 275.329288,64.6177447 275.329288,66.4173617 C275.329288,68.2342979 273.876412,69.7111489 272.089219,69.7111489 M272.089219,61.4042553 C269.361562,61.4042553 267.141631,63.6525957 267.141631,66.4173617 C267.141631,69.213617 269.314695,71.4037021 272.089219,71.4037021 C274.869991,71.4037021 277.049305,69.213617 277.049305,66.4173617 C277.049305,63.6525957 274.824687,61.4042553 272.089219,61.4042553" id="Fill-92" fill="#66992C"></path>
                <path d="M284.799536,69.4970213 L281.412618,69.4970213 L281.412618,61.8577021 C281.412618,61.6120851 281.206403,61.4042553 280.964258,61.4042553 L280.089408,61.4042553 C279.842575,61.4042553 279.639485,61.6073617 279.639485,61.8577021 L279.639485,70.6841702 C279.639485,70.9345106 279.842575,71.137617 280.089408,71.137617 L284.799536,71.137617 C285.047931,71.137617 285.249459,70.9345106 285.249459,70.6841702 L285.249459,69.9504681 C285.249459,69.7001277 285.047931,69.4970213 284.799536,69.4970213" id="Fill-94" fill="#66992C"></path>
            </g>
        </g>
    </g>
</svg>