<?xml version="1.0" encoding="UTF-8"?>
<svg width="135px" height="135px" viewBox="0 0 135 135" version="1.1" xmlns="http://www.w3.org/2000/svg" xmlns:xlink="http://www.w3.org/1999/xlink">
    <!-- Generator: Sketch 50.2 (55047) - http://www.bohemiancoding.com/sketch -->
    <title>Icon</title>
    <desc>Created with Sketch.</desc>
    <defs></defs>
    <g id="Symbols" stroke="none" stroke-width="1" fill="none" fill-rule="evenodd">
        <g id="CTA" transform="translate(-1010.000000, -249.000000)">
            <g id="Icon" transform="translate(1077.500000, 316.500000) scale(-1, 1) translate(-1077.500000, -316.500000) translate(1010.000000, 249.000000)">
                <path d="M67.5,132.5 C103.398509,132.5 132.5,103.398509 132.5,67.5 C132.5,31.6014913 103.398509,2.5 67.5,2.5 C31.6014913,2.5 2.5,31.6014913 2.5,67.5 C2.5,103.398509 31.6014913,132.5 67.5,132.5 Z" id="Circle" stroke="#FFFFFF" stroke-width="5"></path>
                <path d="M73.6898493,86.5491961 L56.6484822,69.1017787 C55.7838393,68.2170952 55.7838393,66.7829048 56.6484822,65.8982213 L73.6898493,48.4508039 C74.1216144,48.0084622 74.8226762,48.0084622 75.2544413,48.4508039 L76.8190333,50.0525826 C77.2507984,50.4949244 77.2507984,51.2120196 76.8190333,51.6543613 L62.1234415,66.6985406 C61.6916764,67.1408824 61.6916764,67.8591176 62.1234415,68.3003193 L76.8190333,83.3456387 C77.2507984,83.7879804 77.2507984,84.5050756 76.8190333,84.9474174 L75.2544413,86.5491961 C74.8226762,86.9915378 74.1216144,86.9915378 73.6898493,86.5491961" fill="#FFFFFF"></path>
                <polygon id="Path-2" fill="#FFFFFF" points="77.0895996 51.0583496 77.0895996 84.3244629 56.5644531 67.30198"></polygon>
            </g>
        </g>
    </g>
</svg>